<svg width="313" height="313" viewBox="0 0 313 313" fill="none" xmlns="http://www.w3.org/2000/svg">
<path d="M153.141 0.00101806C152.486 0.0203939 151.732 0.228824 151.319 0.731827L58.5952 97.1387C57.0522 98.8172 56.9481 99.1918 59.0158 99.2093L244.744 98.7829C247.296 98.6016 247.307 98.7128 245.655 96.834L154.542 0.427153C154.354 0.172261 153.797 -0.0129945 153.141 0.00101806ZM170.943 8.58822L254.555 96.9561C255.675 98.1363 255.948 98.2033 257.92 97.3825L302.004 79.8423C304.891 78.7099 304.491 78.478 302.565 77.3453L170.926 8.58096L170.943 8.58822ZM131.905 11.8159C131.866 11.7438 131.186 12.1854 129.662 13.0949L8.27677 82.5224L46.2637 97.5037C48.2453 98.0714 48.8374 98.1018 50.1182 96.7119L130.226 13.5815C131.355 12.4463 131.946 11.8874 131.908 11.8153L131.905 11.8159ZM170.313 47.017C175.679 47.0172 179.974 48.6246 183.139 51.8283C186.301 55.016 188.086 59.5705 188.536 65.4703C188.983 71.3543 187.848 75.9083 185.171 79.1123C182.493 82.3001 178.482 83.8626 173.117 83.8626C167.732 83.8626 163.454 82.3001 160.291 79.1123C157.127 75.9086 155.342 71.3544 154.894 65.4703C154.445 59.5706 155.58 55.0163 158.258 51.8283C160.935 48.6246 164.928 47.0172 170.313 47.017ZM135.059 47.3824C139.951 47.3826 143.618 48.3126 145.993 50.1839C148.385 52.0554 149.24 54.633 148.656 57.9793C148.318 59.9143 147.436 61.7186 145.993 63.3997C144.552 65.065 141.759 67.3525 137.582 70.1596L127.7 76.798H145.642L144.521 83.4971H114.805L115.996 76.798L132.887 65.3482C134.402 64.3015 135.578 63.3023 136.392 62.3031C137.205 61.304 137.675 60.2147 137.863 59.1363C138.154 57.4709 137.789 56.1317 136.672 55.1168C135.571 54.1018 133.901 53.5944 131.766 53.5942C130.123 53.5944 128.29 53.9502 126.229 54.5686C124.171 55.1714 121.938 56.043 119.501 57.2482L120.832 49.4529C123.324 48.771 125.742 48.2792 128.121 47.9305C130.503 47.5657 132.833 47.3826 135.059 47.3824ZM170.804 53.29C168.54 53.29 167.007 54.2067 166.178 56.0304C165.348 57.8386 165.069 60.9686 165.407 65.4093C165.748 69.8977 166.472 73.0094 167.58 74.8491C168.687 76.6888 170.363 77.6506 172.626 77.6506C174.871 77.6506 176.424 76.6889 177.252 74.8491C178.079 73.0094 178.364 69.8977 178.023 65.4093C177.685 60.9686 176.955 57.8386 175.85 56.0304C174.762 54.2067 173.067 53.29 170.804 53.29ZM70.0193 58.2229C70.9911 58.2229 71.6734 58.4344 71.9817 58.8929C72.5914 59.805 71.8204 61.5833 69.739 64.3131C67.6512 67.0525 65.2533 69.3817 62.5201 71.2558C59.7797 73.125 56.7483 74.5314 53.479 75.4581C51.3587 76.0591 49.8956 76.2167 49.0638 75.8843C48.2244 75.5467 48.0309 74.7038 48.5031 73.4482C46.9236 74.8997 45.2738 76.1588 43.5269 77.1633C41.7801 78.1675 40.0006 78.9475 38.1303 79.4775C35.3467 80.2664 33.6705 80.2089 33.2243 79.2943C32.7777 78.3803 33.5783 76.6267 35.5369 74.0567C37.4812 71.5057 39.6555 69.3417 42.1252 67.6012C44.5799 65.8648 47.2469 64.6183 50.045 63.8253C51.9151 63.2952 53.2201 63.1557 53.9697 63.4599C54.7265 63.7546 54.9023 64.4822 54.5304 65.5913C56.2394 63.9852 58.0458 62.6324 59.9972 61.511C61.941 60.3844 63.9739 59.4933 66.0945 58.8922C67.7293 58.4289 69.0478 58.2253 70.0193 58.2229ZM257.08 59.6845C258.749 60.8977 260.291 62.1523 261.706 63.3385C263.132 64.5247 264.427 65.6691 265.561 66.81C268.051 69.3163 269.375 71.2651 269.486 72.6565C269.607 74.0574 268.522 74.7747 266.261 74.788C264.955 74.788 263.427 74.4571 261.706 73.8745C259.996 73.292 257.279 72.0983 253.506 70.2205L244.535 65.7745L253.716 74.9708L249.161 75.0312L234.022 59.8062L238.578 59.7457L253.927 67.3586C255.312 68.037 256.501 68.5577 257.501 68.881C258.501 69.2045 259.366 69.3725 260.094 69.3682C261.219 69.3682 261.75 69.0008 261.776 68.333C261.812 67.6743 261.321 66.8084 260.234 65.7141C259.398 64.8726 258.282 63.9109 256.87 62.9126C255.469 61.9144 253.772 60.882 251.824 59.7458L257.08 59.6845ZM63.7782 63.765C63.2581 63.8078 62.5558 63.9014 61.7456 64.1304C60.1112 64.5937 58.6634 65.2397 57.4002 66.0183C56.1226 66.8011 55.0843 67.6908 54.3165 68.6979C53.5416 69.7147 53.3731 70.408 53.826 70.7077C54.2786 71.0075 55.3598 70.9233 56.9797 70.4641C58.5997 70.005 60.0402 69.3685 61.3251 68.576C62.5955 67.7881 63.634 66.8523 64.4088 65.8356C65.1766 64.8284 65.3447 64.1811 64.8995 63.8867C64.6694 63.7425 64.2981 63.7221 63.7782 63.765ZM48.5697 68.3935C48.1531 68.4209 47.613 68.5124 46.9577 68.698C45.6471 69.0696 44.497 69.624 43.4535 70.2814C42.3949 70.943 41.5057 71.6877 40.86 72.5349C40.2 73.401 40.0213 73.9698 40.3695 74.2402C40.7247 74.5011 41.5966 74.4253 42.8927 74.057C44.2033 73.6855 45.3384 73.196 46.3969 72.5344C47.4625 71.8634 48.33 71.0862 48.9899 70.2201C49.6357 69.373 49.836 68.8369 49.4807 68.5759C49.3035 68.4454 48.986 68.3665 48.5697 68.3935ZM308.444 83.9841C308.067 84.0076 307.472 84.1961 306.552 84.5321L261.277 102.498C259.669 103.132 259.77 103.986 260.365 105.056L313 221.071L309.215 85.9295C309.099 84.4516 309.074 83.9415 308.444 83.9806L308.444 83.9841ZM4.83589 87.5772L0 219.063L44.5751 105.295C45.2336 103.615 45.2181 103.53 43.8742 102.981L4.83678 87.5731L4.83589 87.5772ZM247.194 104.63L57.259 105.056C54.5446 105.021 54.657 105.023 55.9975 106.944L152.436 248.298C154.065 250.455 153.89 250.387 155.59 248.177L248.243 106.584C249.054 105.459 249.635 104.672 247.192 104.635L247.194 104.63ZM254.763 108.345C254.588 108.409 254.397 108.983 253.852 109.868L160.567 252.5C159.549 254.006 159.307 254.545 161.759 254.205L309.856 236.483C312.205 236.017 312.133 235.287 311.328 233.255L255.445 109.929C255.076 108.748 254.92 108.282 254.744 108.346L254.763 108.345ZM49.9669 109.685C49.7853 109.798 49.6219 110.399 49.266 111.268L1.9576 232.277C1.15204 234.848 1.06094 235.814 4.06016 236.297L145.56 254.08C148.236 254.429 147.894 253.258 147.242 252.131L50.9356 110.967C50.3296 109.9 50.1353 109.575 49.9545 109.688L49.9669 109.685ZM307.462 111.268L307.742 116.323L302.976 119.003L304.098 137.334L308.863 133.253L309.214 138.247L304.378 142.267L299.262 145.129L297.86 121.804L295.617 123.022L295.687 124.484C294.637 124.357 293.614 124.414 292.603 124.605C291.583 124.815 290.621 125.17 289.659 125.701C288.23 126.49 287.152 127.413 286.435 128.503C285.709 129.597 285.38 130.781 285.454 132.035C285.53 133.327 285.962 134.063 286.786 134.288C287.601 134.532 288.767 134.269 290.29 133.436L292.463 132.218L292.743 136.968L290.5 138.186C289.146 138.934 288.116 139.807 287.487 140.744C286.858 141.693 286.576 142.733 286.645 143.911C286.71 145 287.087 145.681 287.767 145.92C288.447 146.16 289.393 145.961 290.57 145.311C291.439 144.832 292.292 144.18 293.164 143.424C294.035 142.667 294.909 141.809 295.757 140.805L296.037 146.164C294.996 147.158 293.988 148.002 292.953 148.783C291.919 149.563 290.879 150.236 289.869 150.793C287.151 152.294 285.119 152.849 283.702 152.376C282.276 151.921 281.463 150.485 281.319 148.052C281.221 146.393 281.438 144.843 282.02 143.424C282.602 142.016 283.518 140.714 284.753 139.587C283.313 139.872 282.191 139.622 281.389 138.795C280.579 137.986 280.169 136.663 280.057 134.776C279.892 131.963 280.519 129.387 282.02 127.041C283.522 124.707 285.843 122.693 288.888 121.012C289.963 120.419 291.014 119.908 292.112 119.55C292.337 119.474 292.586 119.433 292.813 119.367L292.882 119.307L307.46 111.268L307.462 111.268ZM8.83066 121.134C9.54523 121.093 10.2944 121.296 11.1434 121.743C13.0151 122.728 14.3843 124.576 15.2083 127.285C15.2602 127.457 15.3022 127.657 15.3474 127.833L15.6277 124.606L25.7201 129.904L25.2996 134.35L22.0057 132.645L20.5337 148.601L23.968 149.21L23.6175 153.534L20.1131 152.986L16.6087 151.098L18.5013 130.757L15.6276 129.295C16.0586 131.628 16.1994 134.315 15.908 137.395C15.5209 141.488 14.5918 144.339 13.1748 146.043C11.7502 147.755 10.0085 148.057 7.91821 146.957C7.25599 146.608 6.63321 146.183 6.02611 145.678C5.41893 145.172 4.78134 144.587 4.20378 143.912L4.62443 139.344C5.18816 140.164 5.78817 140.837 6.30642 141.354C6.82351 141.882 7.33386 142.301 7.8483 142.572C8.95444 143.154 9.86363 143.065 10.5816 142.328C11.2985 141.603 11.7538 140.212 12.0535 138.187C11.5776 138.506 11.1019 138.669 10.5816 138.674C10.0601 138.694 9.48488 138.555 8.89953 138.248C7.42672 137.473 6.36562 136.124 5.60565 134.168C4.83879 132.208 4.53729 129.99 4.76454 127.59C5.01558 124.936 5.70565 123.06 6.8671 121.987C7.44739 121.457 8.11474 121.177 8.82954 121.135L8.83066 121.134ZM9.8817 125.58C9.62048 125.631 9.3759 125.792 9.18107 126.067C8.78393 126.625 8.54721 127.603 8.41012 129.052C8.27323 130.501 8.29138 131.692 8.54919 132.584C8.80168 133.483 9.29491 134.127 9.95098 134.472C10.6003 134.814 11.0956 134.665 11.4928 134.106C11.8824 133.557 12.1266 132.571 12.2636 131.122C12.4005 129.673 12.3758 128.489 12.1245 127.59C11.8646 126.698 11.4425 126.105 10.793 125.763C10.4649 125.589 10.1433 125.529 9.8817 125.58ZM121.178 134.593H131.13V141.049H149.283V148.905L132.882 170.099H121.178V147.687H115.361V141.049H121.178L121.178 134.593ZM155.661 134.593H184.186V140.927H174.935V163.888L184.466 162.182V168.394L174.935 170.1H164.912V140.928H155.661V134.593ZM131.131 147.687V162.608L142.695 147.687H131.131ZM60.6945 174.545L67.2826 182.34L64.1988 184.106C64.6746 184.2 65.115 184.27 65.6005 184.411C69.4709 185.545 73.0319 188.053 76.2536 191.841C79.8045 196.015 81.2366 199.96 80.5287 203.778C79.7953 207.588 76.948 210.902 72.0484 213.705C67.0268 216.578 61.9732 217.536 56.8399 216.506C51.6805 215.47 47.1389 212.582 43.1726 207.919C41.9157 206.441 40.7749 204.989 39.8085 203.473C38.8419 201.957 38.0103 200.395 37.2854 198.784L42.8923 195.556C43.4408 197.268 44.1144 198.816 44.8546 200.185C45.5809 201.56 46.4014 202.813 47.3777 203.96C49.4766 206.428 51.7716 207.957 54.2461 208.589C56.707 209.229 59.2789 208.967 62.0256 207.736C60.5553 207.17 59.2261 206.401 57.9607 205.483C56.6818 204.572 55.4968 203.439 54.3865 202.133C51.5919 198.848 50.2111 195.682 50.3214 192.633C50.4198 189.569 51.9318 187.192 54.877 185.507C55.6914 185.041 56.5465 184.69 57.3999 184.411L52.8445 179.052L60.6945 174.545ZM239.549 185.812L247.188 190.927L259.383 215.775L253.286 223.632L231.279 209.015L228.265 212.913L221.747 208.589L224.831 204.63L218.453 200.428L223.709 193.729L230.017 197.992L239.549 185.812ZM65.9472 191.963C64.7599 192.031 63.496 192.479 62.1625 193.242C60.3846 194.259 59.4086 195.355 59.149 196.591C58.8632 197.821 59.3059 199.208 60.5506 200.672C61.7831 202.121 63.1675 202.949 64.6856 203.169C66.1778 203.381 67.8137 202.968 69.5916 201.95C71.3697 200.933 72.3899 199.831 72.6754 198.601C72.9353 197.365 72.5049 195.969 71.2737 194.52C70.0289 193.057 68.631 192.236 67.1387 192.024C66.759 191.969 66.343 191.939 65.9472 191.963ZM242.56 194.581L236.533 202.316L251.111 212.06L242.56 194.581ZM13.1678 243.364L152.013 311.817C153.81 312.764 154.23 312.419 153.975 310.782L151.031 262.792C150.951 261.243 150.71 260.612 148.859 260.356L13.1748 243.364L13.1678 243.364ZM300.236 243.485L159.288 260.415C157.428 260.654 157.764 261.447 157.746 262.608L160.76 311.451C160.915 312.933 160.865 313.464 162.933 312.547L300.236 243.485ZM211.997 264.556L222.3 274.483L230.36 270.342L232.603 272.534L211.437 283.436L208.003 285.202L186.837 296.104L184.594 293.972L192.654 289.831L184.454 282.035L176.885 286.846L174.642 284.715L182.211 279.965L190.832 275.519L201.205 285.446L205.76 283.071L209.194 281.304L213.75 278.929L205.62 271.134L197.981 275.945L195.808 273.813L203.377 269.002L211.997 264.556ZM119.344 266.018C122.071 266.126 124.533 266.945 126.843 268.454C129.408 270.13 130.493 271.937 130.067 273.935C129.641 275.933 127.737 277.931 124.39 279.904C122.399 281.077 120.342 281.879 118.293 282.4L120.676 283.984L115.279 287.151L110.513 284.045L112.265 283.009C109.28 282.839 106.584 281.991 104.135 280.391C103.213 279.788 102.377 279.202 101.682 278.564C100.979 277.93 100.38 277.252 99.8599 276.554L103.715 274.301C104.123 275.064 104.583 275.708 105.116 276.31C105.659 276.907 106.289 277.484 107.009 277.955C108.519 278.942 110.188 279.447 111.915 279.477C113.65 279.502 115.414 279.009 117.311 278.076C116.249 277.96 115.276 277.772 114.368 277.467C113.459 277.163 112.635 276.766 111.845 276.249C109.833 274.935 108.833 273.464 108.831 271.925C108.853 270.388 109.888 269.04 111.915 267.845C114.155 266.524 116.626 265.917 119.344 266.018ZM120.535 269.672C119.474 269.741 118.38 270.117 117.171 270.829C115.953 271.547 115.234 272.245 115.069 272.9C114.912 273.549 115.303 274.147 116.19 274.727C117.077 275.307 118.011 275.582 119.063 275.519C120.125 275.449 121.28 275.019 122.498 274.301C123.706 273.588 124.364 272.945 124.53 272.291C124.696 271.636 124.366 270.983 123.479 270.403C122.592 269.823 121.597 269.603 120.535 269.672Z" fill="#8AB8BD"/>
</svg>
