<?xml version="1.0" standalone="no"?>
<!DOCTYPE svg PUBLIC "-//W3C//DTD SVG 20010904//EN"
 "http://www.w3.org/TR/2001/REC-SVG-20010904/DTD/svg10.dtd">
<svg version="1.0" xmlns="http://www.w3.org/2000/svg"
 width="1024.000000pt" height="1024.000000pt" viewBox="0 0 1024.000000 1024.000000"
 preserveAspectRatio="xMidYMid meet">

<g transform="translate(0.000000,1024.000000) scale(0.100000,-0.100000)"
fill="#000000" stroke="none">
<path d="M0 5120 l0 -5120 5120 0 5120 0 0 5120 0 5120 -5120 0 -5120 0 0
-5120z m4963 4526 c63 -26 86 -78 63 -144 l-14 -40 64 -7 c82 -9 118 -36 139
-108 26 -87 30 -185 10 -252 l-17 -60 24 -18 c22 -18 49 -34 288 -168 58 -33
114 -58 125 -57 31 5 29 34 -4 80 -42 58 -43 117 -2 158 74 75 191 37 191 -61
l0 -37 78 38 c104 53 182 56 197 9 9 -28 -16 -53 -68 -69 -92 -27 -160 -77
-139 -102 18 -23 32 -121 23 -161 -8 -35 -7 -39 22 -61 18 -13 57 -37 88 -55
l57 -31 15 24 c9 13 61 63 116 111 78 69 100 93 105 120 8 39 61 90 104 100
62 13 132 -43 132 -106 0 -13 27 -50 68 -94 38 -39 88 -104 113 -143 41 -67
46 -72 79 -72 60 0 93 -28 176 -150 217 -319 212 -309 191 -381 -9 -29 -15
-54 -14 -55 9 -8 317 -188 372 -218 l70 -38 64 61 c76 72 129 100 199 103 29
2 52 6 52 9 0 4 -7 20 -15 35 -36 70 -6 142 69 162 53 15 97 -1 129 -48 35
-50 9 -133 -52 -164 l-29 -16 48 -72 c110 -167 113 -186 35 -243 -31 -22 -62
-41 -70 -43 -19 -4 -20 -22 -2 -22 8 0 40 -17 73 -38 59 -39 104 -93 138 -167
18 -39 18 -40 0 -24 -48 40 -95 3 -151 -119 -60 -130 -70 -154 -78 -189 -4
-18 -11 -33 -16 -33 -5 0 -9 -4 -9 -10 0 -5 -11 -34 -25 -64 -14 -30 -25 -59
-25 -65 0 -5 -6 -16 -13 -23 -7 -7 -39 -67 -72 -133 -32 -66 -64 -127 -71
-135 -7 -8 -27 -42 -45 -75 -18 -33 -44 -78 -59 -100 -14 -22 -64 -116 -110
-210 -47 -93 -88 -171 -92 -173 -5 -2 -8 -8 -8 -14 0 -22 -84 -150 -120 -182
-49 -44 -93 -56 -206 -56 -124 0 -144 9 -193 83 -61 92 -236 266 -407 406
-139 114 -407 400 -461 492 -11 17 -31 33 -50 38 -67 19 -187 125 -508 447
-245 247 -255 254 -350 254 -54 0 -94 -27 -138 -93 -36 -54 -184 -215 -281
-306 -27 -25 -54 -52 -60 -60 -55 -70 -175 -162 -211 -162 -2 0 -25 -8 -51
-19 -25 -11 -49 -18 -54 -15 -13 8 -3 237 15 325 11 55 13 86 7 92 -20 20 -30
-4 -37 -90 -5 -60 -13 -98 -27 -122 -25 -42 -47 -150 -37 -176 4 -10 8 -31 8
-46 1 -28 16 -38 23 -16 2 6 12 12 21 14 13 2 16 -3 11 -24 -6 -27 -35 -93
-44 -102 -17 -15 -51 -72 -47 -76 3 -3 15 -1 26 6 31 16 58 -3 71 -50 11 -39
5 -62 -22 -94 -41 -50 -48 -60 -48 -69 0 -6 -3 -7 -6 -4 -7 6 -54 -83 -60
-112 -2 -8 -5 -25 -8 -37 -5 -17 3 -33 25 -59 24 -27 33 -48 37 -85 l5 -50
-29 9 c-16 5 -50 15 -76 22 -31 9 -50 20 -57 35 -17 39 -103 46 -125 11 -9
-15 -5 -23 22 -48 18 -16 29 -29 24 -29 -4 0 -25 15 -45 34 -31 28 -37 40 -37
73 0 22 7 48 15 59 9 12 14 42 14 84 0 64 0 65 -16 38 l-16 -26 -29 29 c-28
27 -30 28 -46 11 -10 -9 -24 -29 -31 -44 -16 -31 -88 -108 -101 -108 -5 0 -7
-7 -4 -15 4 -9 0 -15 -8 -15 -8 0 -30 -15 -50 -33 -19 -18 -68 -62 -108 -97
-40 -36 -78 -70 -84 -75 -67 -62 -206 -159 -271 -189 -22 -11 -77 -22 -130
-26 -85 -7 -93 -6 -145 19 -49 24 -60 35 -106 114 -28 48 -57 94 -64 102 -6 8
-9 18 -7 22 4 7 -54 94 -93 141 -7 8 -7 12 0 12 18 0 11 22 -9 27 -22 6 -35
29 -25 45 4 7 -2 7 -17 3 -21 -7 -22 -6 -10 9 12 14 11 16 -3 16 -9 0 -16 5
-16 12 0 6 -2 9 -5 6 -8 -7 16 -68 26 -68 5 0 8 -3 7 -7 -1 -5 6 -26 16 -48
10 -22 24 -57 32 -78 7 -21 20 -50 28 -65 25 -44 84 -233 92 -288 7 -55 -10
-147 -48 -264 -30 -93 -158 -425 -217 -560 -27 -63 -55 -128 -62 -145 -7 -16
-22 -52 -35 -80 -12 -27 -38 -89 -57 -136 -20 -47 -52 -122 -72 -165 -20 -43
-56 -124 -80 -179 -149 -347 -238 -543 -312 -680 -14 -27 -28 -71 -31 -98 -3
-26 -9 -50 -13 -53 -5 -3 -9 -17 -9 -32 -1 -23 -2 -25 -11 -9 -5 9 -20 17 -32
17 -24 1 -112 29 -139 45 -10 6 -20 26 -23 45 -4 25 -3 29 3 15 8 -18 9 -17
15 7 7 27 37 41 89 43 37 1 41 8 33 53 -6 38 -84 183 -116 214 -14 14 -17 10
-37 -42 -13 -32 -38 -74 -57 -93 -19 -20 -35 -44 -35 -54 1 -22 23 -53 39 -53
6 0 11 -3 11 -7 0 -12 -29 -102 -36 -114 -6 -10 -44 26 -44 41 0 4 -8 16 -18
28 -15 17 -21 19 -31 9 -9 -9 -14 -9 -20 1 -14 23 -34 -13 -26 -50 l6 -33 -22
28 c-17 22 -24 25 -30 15 -15 -22 -10 80 5 115 7 18 39 59 71 92 l58 60 6 175
c8 224 24 228 31 8 3 -113 7 -152 13 -126 4 20 14 39 22 42 10 3 12 0 8 -12
-3 -9 3 -6 13 8 19 25 20 48 10 165 l-6 70 19 -66 c40 -145 136 -343 173 -357
4 -2 8 -10 8 -17 0 -8 4 -17 10 -20 7 -4 7 3 0 20 -13 35 -5 46 27 34 48 -18
79 13 147 146 63 124 75 149 181 395 34 80 72 165 85 190 26 51 158 350 200
455 15 39 69 171 119 294 117 286 161 431 160 520 0 36 -3 60 -6 54 -10 -26
-21 -12 -27 35 -7 58 -58 167 -81 175 -31 12 -62 7 -89 -14 -14 -11 -23 -26
-19 -32 3 -7 3 -9 -2 -5 -7 7 -15 -4 -52 -74 -8 -16 -16 -28 -18 -28 -8 0 8
65 19 79 12 15 16 104 5 111 -4 3 6 59 22 125 16 66 29 130 29 143 0 13 4 31
9 41 7 13 3 31 -15 67 -20 41 -23 44 -20 19 8 -52 -43 -264 -82 -340 -44 -87
-104 -188 -117 -197 -5 -4 11 -16 37 -28 26 -11 50 -29 53 -40 14 -43 -40 -80
-82 -56 -28 16 -104 35 -145 36 l-36 0 10 -37 c14 -52 57 -125 71 -120 19 6
76 -173 64 -198 -22 -44 -62 -66 -108 -61 -52 6 -68 33 -56 99 9 48 8 58 -10
83 -11 16 -45 81 -77 144 -77 155 -75 154 -135 151 -28 -1 -59 -5 -71 -9 -18
-7 -16 -11 30 -46 65 -50 100 -92 100 -121 0 -24 -39 -75 -56 -75 -5 0 -15
-15 -22 -32 -7 -18 -23 -55 -37 -83 -36 -76 -51 -184 -30 -225 7 -14 15 -45
19 -69 4 -24 21 -64 39 -89 18 -26 35 -53 38 -62 7 -17 89 141 89 171 0 10 3
25 7 35 6 17 7 17 13 0 4 -13 13 -2 35 43 16 33 32 56 35 51 10 -16 79 0 202
47 96 38 125 53 137 75 23 40 60 37 89 -7 l22 -35 38 19 c45 23 73 53 100 106
l21 40 1 -36 c1 -79 -67 -197 -105 -183 -9 4 -26 -6 -42 -25 -35 -39 -43 -39
-43 1 0 25 -3 29 -12 20 -7 -7 -20 -12 -29 -12 -23 0 -106 -48 -113 -65 -7
-19 3 -190 14 -240 16 -66 13 -172 -5 -179 -12 -4 -15 6 -16 62 0 37 -4 76 -9
87 -5 11 -9 14 -9 8 -1 -7 -4 -12 -9 -11 -4 1 -29 -20 -57 -46 -27 -26 -62
-50 -77 -53 -15 -3 -33 -12 -39 -19 -6 -8 -18 -14 -26 -14 -7 0 -16 -7 -19
-15 -3 -8 -16 -17 -27 -21 -24 -7 -98 -53 -108 -68 -4 -5 -12 -5 -19 -1 -8 5
-11 4 -6 -3 3 -6 -2 -12 -11 -15 -10 -2 7 -2 38 1 31 2 59 0 62 -5 3 -4 11
-47 17 -93 6 -47 13 -94 16 -105 l5 -20 -12 20 c-27 46 -112 104 -125 84 -3
-5 -10 -6 -16 -3 -21 13 1 -72 38 -141 37 -70 38 -73 24 -114 -7 -23 -19 -46
-27 -52 -7 -6 -10 -16 -6 -22 4 -6 0 -8 -10 -4 -12 4 -14 2 -10 -10 4 -10 2
-14 -4 -10 -6 4 -16 1 -22 -7 -7 -8 -26 -17 -44 -20 -43 -8 -105 -42 -141 -77
-35 -34 -66 -38 -66 -9 0 14 -7 20 -23 20 -12 0 -46 6 -75 14 -45 11 -55 11
-67 -1 -12 -12 -16 -9 -30 18 -27 52 1 120 59 144 33 14 33 15 39 97 15 184 8
316 -24 488 -25 136 -29 179 -24 242 7 73 8 77 27 67 28 -15 33 -38 14 -69
-23 -40 -21 -96 9 -277 3 -18 12 -39 20 -46 10 -11 15 -64 18 -226 3 -117 7
-215 10 -218 8 -7 48 59 111 185 31 62 61 112 66 112 15 0 12 26 -5 40 -21 18
-49 83 -68 165 -50 205 -76 266 -134 318 -13 12 -23 29 -23 39 0 12 -7 18 -22
18 -12 0 -19 3 -15 6 3 4 -9 15 -29 24 -35 18 -100 24 -109 10 -3 -4 -9 -39
-14 -76 -17 -119 -78 -143 -178 -71 -93 67 -97 71 -84 95 18 34 53 27 94 -18
19 -22 40 -40 46 -40 12 0 26 52 35 128 6 50 6 52 -18 52 -25 0 -48 20 -24 20
8 1 6 6 -6 15 -11 8 -27 15 -35 15 -14 0 -14 -2 -1 -10 8 -5 12 -11 9 -14 -3
-3 -16 5 -29 19 -18 19 -23 36 -23 71 0 41 4 51 36 81 31 28 44 33 85 33 54 0
85 -17 113 -63 15 -26 28 -33 81 -44 34 -7 63 -12 64 -10 1 1 6 130 11 287 8
257 8 288 -7 320 -10 19 -25 69 -35 110 -9 41 -28 92 -42 112 -19 28 -23 44
-18 67 10 47 68 69 97 37 11 -11 15 -4 25 43 16 78 16 141 -2 191 -8 23 -15
58 -15 76 0 32 -7 39 -38 35 -6 -1 -12 3 -12 9 0 5 -3 9 -7 8 -22 -7 -74 39
-85 73 -14 49 -4 86 34 121 25 23 39 28 81 28 45 0 54 -4 88 -40 l38 -39 20
42 c12 24 21 52 21 63 0 10 10 35 22 54 16 26 23 31 26 18 2 -9 -2 -26 -7 -37
-32 -60 28 -8 66 57 l26 43 -36 30 c-97 80 -62 187 80 238 93 34 88 25 88 151
0 105 1 113 24 131 13 10 29 19 36 19 24 0 68 -44 89 -91 l22 -47 27 33 c14
18 57 52 95 76 l68 44 0 80 c-1 44 3 88 8 98 7 15 3 17 -29 17 -29 0 -45 8
-71 34 -29 29 -34 41 -34 79 0 37 6 51 30 75 68 69 166 48 200 -42 6 -16 8
-42 5 -57 -6 -24 -3 -27 32 -34 42 -8 93 -32 141 -68 l34 -25 75 46 c41 26
105 75 143 109 37 34 95 75 128 92 l61 31 -24 57 c-17 43 -29 59 -47 63 -39 9
-83 37 -98 64 -15 29 -18 82 -6 109 7 14 3 17 -29 17 -55 0 -105 52 -105 110
0 23 5 50 10 61 15 28 63 49 111 49 37 0 48 -6 83 -42 l41 -43 42 13 c71 23
111 5 206 -94 83 -85 83 -85 123 -78 70 11 72 16 27 76 -63 83 -67 93 -41 118
12 11 28 20 37 20 32 0 111 -104 157 -208 1 -2 56 32 123 75 l122 78 -5 95
c-2 52 -10 118 -16 147 -11 48 -14 52 -48 60 -26 6 -41 17 -51 37 -12 26 -10
33 19 89 41 79 65 105 110 118 53 16 99 -7 148 -73 51 -68 177 -210 198 -221
12 -7 22 -3 37 11 19 20 19 22 3 61 -22 56 -20 78 7 104 13 12 43 44 67 71 43
46 44 49 25 62 -54 40 -65 55 -65 89 0 53 43 96 102 102 43 5 53 1 133 -48 50
-30 107 -76 136 -107 l48 -55 88 53 c48 30 97 61 109 69 l21 16 -30 37 c-22
28 -29 47 -29 77 1 48 44 149 89 208 l32 42 -30 21 c-86 62 -72 191 25 219 43
13 43 13 79 -3z m3452 -2905 c21 -66 41 -121 44 -120 3 1 28 25 54 54 l49 54
-20 28 c-33 47 -35 78 -7 111 48 57 124 73 150 32 5 -8 14 -6 29 8 34 32 62
42 111 42 40 0 52 -5 82 -35 33 -33 35 -39 30 -82 -4 -39 -12 -54 -46 -86 -38
-35 -46 -38 -88 -36 -41 3 -47 0 -55 -21 -10 -28 -26 -40 -44 -33 -7 2 -17 -5
-23 -16 -14 -25 -14 -98 -1 -106 6 -3 10 -1 10 4 0 7 37 11 103 11 67 0 130 7
185 20 100 24 97 24 116 4 40 -39 5 -67 -112 -90 -77 -16 -95 -25 -72 -39 6
-3 5 -15 -2 -31 -12 -26 -46 -40 -78 -31 -16 4 -18 2 -10 -13 14 -25 13 -53
-2 -68 -10 -10 -16 -8 -28 7 -17 23 -90 40 -90 22 0 -7 6 -9 13 -6 6 4 2 -2
-10 -13 -12 -11 -20 -21 -18 -24 10 -9 -93 -68 -125 -70 -33 -3 -35 -1 -38 30
-3 28 0 32 20 32 41 1 108 37 108 59 0 11 -5 23 -10 26 -6 4 -8 10 -5 15 3 5
-11 14 -30 21 -19 7 -35 16 -35 20 0 10 -115 30 -177 32 -68 1 -69 18 -8 80
32 33 45 54 45 74 0 31 -60 250 -85 309 -8 20 -15 42 -15 48 1 20 47 -100 85
-223z m-3660 -181 c13 -14 24 -62 39 -167 l21 -148 123 -60 c72 -35 120 -64
115 -69 -5 -5 0 -6 11 -2 14 5 17 2 12 -9 -3 -8 -1 -15 3 -15 5 0 18 -3 28 -6
13 -4 14 -3 5 4 -10 7 -5 11 20 17 33 8 33 8 6 12 -16 3 -28 8 -28 12 0 4 -16
13 -35 20 -46 16 -65 71 -44 127 41 107 180 105 218 -3 20 -55 1 -108 -49
-134 -89 -48 70 5 175 59 33 16 67 38 76 48 10 11 25 71 38 143 12 69 27 136
34 150 15 31 46 39 63 17 13 -19 12 -25 -21 -141 -13 -44 -27 -105 -30 -135
-4 -30 -13 -67 -21 -81 -21 -42 -150 -118 -238 -140 -56 -14 -61 -27 -61 -149
l0 -85 68 -110 c80 -131 96 -179 102 -305 3 -65 2 -81 -4 -52 -4 24 -13 47
-19 51 -6 4 -18 22 -26 42 -17 41 -50 74 -66 64 -6 -3 -10 -3 -9 2 4 21 -2 44
-10 39 -5 -3 -11 3 -14 13 -8 33 -100 180 -115 186 -15 5 -62 -30 -62 -46 0
-15 -49 -81 -105 -141 -30 -34 -55 -58 -55 -54 0 3 -8 -2 -19 -13 -20 -20 -46
-100 -56 -169 -4 -30 0 -54 12 -80 17 -34 18 -35 21 -13 3 19 6 21 13 10 6
-10 9 -8 10 11 0 23 1 23 9 5 7 -17 9 -17 9 -2 1 9 5 17 10 17 14 0 21 -27 21
-79 0 -35 -5 -53 -20 -66 -19 -17 -20 -17 -20 -1 0 9 -4 15 -9 11 -5 -3 -12
-1 -16 5 -3 5 -20 7 -37 3 l-31 -6 7 43 c4 24 9 96 12 159 9 218 22 257 122
383 85 105 91 121 94 233 l3 97 -55 15 c-30 7 -71 24 -90 36 -19 12 -47 29
-62 36 -15 8 -41 26 -58 40 -28 24 -31 34 -44 136 -8 61 -20 136 -27 167 -10
46 -10 59 0 72 18 21 34 20 56 -4z m3349 -313 c16 -12 17 -19 6 -75 -17 -83
-8 -155 24 -193 14 -16 28 -45 32 -64 6 -32 9 -35 40 -35 67 0 114 -43 114
-104 0 -24 -29 -44 -47 -33 -5 3 -23 -3 -42 -12 -22 -12 -30 -21 -22 -25 8 -5
2 -16 -18 -35 -28 -26 -29 -30 -20 -72 14 -59 7 -79 -56 -163 -30 -40 -55 -77
-55 -82 0 -5 -26 -30 -58 -56 -31 -26 -95 -86 -141 -133 -46 -46 -87 -82 -92
-79 -5 3 -9 1 -9 -4 0 -4 -22 -20 -49 -34 -42 -21 -51 -23 -56 -10 -10 25 26
77 123 177 52 53 92 99 89 101 -10 10 -179 5 -226 -7 -45 -11 -54 -11 -61 1
-12 19 5 45 54 85 35 28 43 30 141 33 l104 4 -25 57 c-29 66 -51 87 -107 101
-98 25 -147 62 -147 111 0 26 3 28 28 24 171 -31 238 -47 253 -61 10 -9 39
-50 65 -90 25 -41 50 -74 56 -74 12 0 118 113 134 143 10 18 8 25 -17 48 -16
15 -30 38 -30 51 -4 66 -8 88 -27 140 -12 32 -22 81 -22 110 0 85 -11 130 -32
136 -49 13 12 124 73 131 3 1 13 -5 23 -12z m-2398 -59 c4 -7 15 -43 24 -82 8
-38 22 -72 30 -77 8 -4 54 -16 102 -27 54 -13 103 -31 128 -49 l41 -28 43 41
c71 67 127 73 242 24 80 -35 127 -110 68 -110 -19 0 -28 -8 -39 -33 -17 -41
-70 -85 -131 -109 -38 -15 -63 -18 -110 -13 -42 4 -79 1 -115 -9 -58 -16 -172
-32 -281 -40 -62 -4 -68 -3 -68 15 0 25 32 37 140 55 103 16 224 44 241 55 25
15 -56 63 -191 114 -109 41 -161 69 -165 89 -10 49 -16 157 -10 176 7 22 39
27 51 8z m-1784 -245 c20 -19 28 -36 28 -62 0 -81 19 -100 77 -76 44 19 53 13
49 -31 -2 -24 -11 -43 -27 -55 -25 -19 -59 -25 -59 -10 0 5 -22 18 -50 30 -27
12 -53 27 -57 34 -4 6 -17 17 -28 23 -24 13 -41 71 -31 108 7 29 39 66 58 66
7 0 25 -12 40 -27z m2505 -263 c69 -72 193 -243 193 -267 0 -7 -4 -14 -10 -14
-5 -1 -16 -2 -22 -3 -7 -1 -24 19 -38 44 -29 51 -50 79 -101 132 -20 21 -34
40 -31 43 3 3 1 5 -4 5 -6 0 -20 17 -32 39 -12 21 -28 44 -36 50 -15 12 -11
41 4 41 5 0 39 -32 77 -70z m-3827 -109 c0 -30 -48 -280 -57 -294 -5 -8 -33
17 -33 29 0 4 -10 19 -22 32 l-23 24 25 -4 c13 -1 29 -13 35 -25 10 -19 14 -8
29 75 10 53 20 117 22 142 2 25 3 46 4 48 0 1 5 2 10 2 6 0 10 -13 10 -29z
m6158 -115 c29 -39 42 -88 35 -131 -7 -43 -31 -52 -77 -30 -34 16 -34 17 -60
151 -14 74 -26 140 -26 145 0 11 90 -84 128 -135z m-6310 106 c3 -20 1 -21
-21 -11 -16 7 -23 17 -20 26 8 21 38 11 41 -15z m3766 3 c45 -48 46 -100 6
-242 -16 -58 -30 -121 -30 -139 0 -29 60 -209 105 -318 l15 -35 73 77 c126
136 412 465 448 517 19 27 37 53 40 58 4 6 19 7 33 3 21 -5 26 -12 26 -36 0
-57 -85 -168 -364 -474 -45 -49 -89 -98 -99 -110 -68 -80 -153 -156 -174 -156
-13 0 -23 3 -23 8 0 4 -11 20 -25 35 -21 22 -27 40 -31 99 -5 76 -35 193 -47
182 -4 -4 -7 2 -7 14 0 12 -4 22 -9 22 -5 0 -12 11 -15 24 -6 24 -34 31 -47
12 -4 -5 -10 7 -14 25 -10 48 -13 51 -33 31 -63 -63 -143 -209 -107 -196 13 5
29 -51 19 -67 -3 -6 -1 -16 5 -23 6 -7 16 -35 21 -62 40 -194 40 -196 -12
-185 -24 5 -34 13 -36 29 -2 12 -7 22 -10 22 -4 0 -7 47 -7 104 0 57 3 102 6
100 9 -5 19 23 18 49 -1 17 -3 15 -9 -8 -7 -28 -8 -28 -9 -5 -3 49 -13 68 -39
73 -15 3 -30 0 -34 -6 -4 -7 -8 11 -8 40 0 50 5 60 100 202 55 82 107 156 115
165 12 11 35 93 35 122 0 2 14 19 31 39 37 41 61 44 93 10z m-2031 -7 c35 0
44 -14 66 -99 27 -101 54 -162 135 -303 76 -132 132 -244 140 -283 6 -25 3
-36 -13 -52 -12 -12 -30 -21 -42 -21 -22 0 -66 -40 -96 -86 -40 -63 -96 -135
-113 -144 -50 -27 -40 0 56 145 100 153 101 165 30 269 l-44 64 5 -57 c7 -72
-6 -99 -50 -103 -30 -3 -35 -9 -88 -118 -51 -105 -121 -200 -146 -200 -10 0
-124 116 -197 200 -22 25 -65 72 -95 105 -217 234 -261 284 -299 341 -39 58
-43 68 -37 104 4 22 11 40 15 40 5 0 34 -33 65 -72 127 -164 544 -603 565
-596 7 2 40 52 73 111 68 123 77 165 58 281 -20 116 -34 177 -43 182 -10 7
-10 127 1 223 8 69 27 104 42 80 3 -6 9 -11 12 -11z m-1772 -192 c13 -14 11
-22 -7 -40 -8 -9 -16 -25 -17 -35 0 -11 -5 -17 -9 -15 -4 3 -8 -4 -8 -14 0
-11 -7 -22 -15 -26 -20 -7 -20 39 1 100 19 56 37 80 42 56 2 -10 8 -21 13 -26z
m6651 -45 c32 -36 35 -65 11 -116 -12 -24 -19 -31 -25 -23 -5 9 -8 6 -8 -9 0
-16 -12 -28 -40 -43 -38 -20 -40 -22 -34 -58 5 -35 2 -42 -35 -82 -23 -24 -41
-50 -41 -57 0 -15 -131 -121 -198 -160 -53 -31 -70 -44 -123 -93 -62 -58 -79
-70 -175 -131 -86 -54 -174 -89 -174 -68 0 31 36 69 124 130 105 71 202 156
192 166 -7 7 -104 5 -130 -3 -13 -5 -16 -3 -11 7 6 9 3 11 -9 6 -39 -15 -69
-20 -63 -10 8 13 -58 1 -126 -22 -44 -15 -73 -34 -116 -76 -17 -17 -82 -49
-99 -49 -6 0 -12 -5 -14 -11 -2 -7 -10 -10 -17 -8 -8 3 3 16 28 32 23 15 75
59 115 97 62 59 86 75 163 104 49 19 130 43 179 52 149 27 148 26 68 58 -38
16 -102 44 -143 62 -84 39 -102 41 -151 14 -19 -11 -43 -22 -52 -26 -10 -3
-18 -11 -18 -16 0 -5 -5 -6 -11 -2 -6 3 -14 2 -18 -3 -3 -5 -21 -13 -38 -16
-28 -6 -33 -4 -33 13 0 12 15 29 38 43 20 13 73 47 118 75 44 29 91 52 104 52
13 0 53 -15 89 -34 81 -42 203 -80 230 -71 11 3 36 24 57 47 32 36 42 41 77
40 22 -1 55 3 73 10 l33 12 -6 57 c-11 107 28 152 126 146 46 -3 59 -9 83 -36z
m-3685 -32 c-4 -14 -1 -19 7 -16 8 3 16 -15 25 -55 16 -80 9 -86 -91 -72 -38
5 -44 9 -42 28 1 11 3 46 4 76 1 43 3 50 10 33 13 -31 68 -28 76 5 4 12 8 22
11 22 3 0 3 -9 0 -21z m-147 -144 c33 -17 60 -61 60 -99 0 -31 -31 -71 -41
-54 -8 13 -86 12 -122 -1 -14 -6 -29 -7 -33 -3 -5 4 -2 -1 5 -11 24 -31 0 -33
-25 -2 -76 94 46 227 156 170z m-3173 -27 c-3 -8 -6 -5 -6 6 -1 11 2 17 5 13
3 -3 4 -12 1 -19z m3087 -173 c4 -10 -1 -15 -14 -15 -20 0 -26 11 -13 23 10
11 20 8 27 -8z m-19 -47 c15 -15 28 -18 55 -13 57 10 100 9 112 -3 6 -6 15
-39 20 -74 4 -34 14 -65 21 -70 6 -4 37 -12 67 -18 98 -19 115 -25 127 -50 15
-30 1 -60 -29 -60 -30 0 -159 39 -186 56 -13 8 -31 29 -42 46 l-18 31 -12 -41
c-21 -81 -16 -106 42 -220 64 -122 88 -196 87 -261 0 -25 -3 -39 -6 -31 -8 22
-45 60 -58 60 -22 0 -65 56 -89 116 -52 128 -92 172 -125 137 -19 -20 -35 -53
-32 -66 0 -4 -12 -22 -28 -39 -16 -18 -36 -43 -43 -57 -7 -15 -19 -32 -27 -40
-22 -23 -8 -88 60 -294 31 -93 29 -97 -41 -97 -35 0 -74 -7 -90 -15 -29 -15
-30 -15 -30 10 0 15 14 39 36 61 34 35 35 40 29 86 -16 115 -51 198 -78 181
-6 -4 -8 14 -5 50 5 62 35 114 134 237 64 80 74 104 74 180 0 69 -14 84 -33
38 -32 -77 -94 -107 -255 -123 -71 -7 -83 4 -62 55 14 33 20 36 110 45 109 12
123 21 149 105 30 94 48 112 103 103 23 -3 51 -15 63 -25z m-2615 -155 c0 -5
-3 -18 -6 -30 -5 -19 -9 -20 -35 -11 -16 6 -38 8 -49 5 -11 -3 -20 -1 -20 4 0
5 -1 12 -2 16 -3 9 42 20 85 22 15 0 27 -2 27 -6z m480 -118 c42 -21 63 -68
57 -122 -4 -42 -35 -83 -61 -83 -6 0 -3 5 7 11 9 5 17 15 17 21 0 6 -7 5 -17
-3 -15 -12 -16 -12 -10 3 5 14 0 19 -21 24 -15 3 -45 10 -66 16 -42 10 -60 -1
-52 -34 6 -25 -11 -22 -25 4 -17 32 -14 93 5 123 33 50 111 68 166 40z m3190
-34 c0 -29 -112 -166 -340 -416 -30 -33 -73 -80 -95 -104 -101 -113 -208 -225
-316 -333 -144 -141 -196 -171 -311 -176 -70 -4 -82 -1 -141 28 -54 26 -95 62
-230 198 -222 226 -315 325 -444 472 -174 200 -204 246 -173 265 18 11 409
-382 701 -703 117 -129 166 -156 279 -157 122 0 177 35 331 210 29 33 105 116
169 185 65 69 134 145 156 170 21 25 73 81 115 125 42 44 96 102 120 130 99
112 111 122 157 122 14 0 22 -5 22 -16z m-4030 -107 c0 -8 -9 -14 -20 -14 -22
0 -28 26 -7 33 16 6 27 -1 27 -19z m78 -58 c-6 -47 -40 -106 -63 -106 -16 0
-48 80 -43 106 2 14 15 21 45 25 24 3 46 8 49 12 14 14 17 6 12 -37z m4102
-31 c35 -18 64 -69 56 -99 -4 -17 -14 -23 -43 -24 -81 -5 -138 -18 -135 -31 1
-7 -2 -10 -8 -6 -5 3 -10 -2 -10 -12 -1 -26 -39 46 -40 75 -1 84 100 138 180
97z m-3191 -126 c37 -11 58 -9 175 14 73 15 145 27 159 27 36 0 71 -31 63 -57
-7 -23 -31 -31 -201 -62 -124 -23 -185 -28 -203 -17 -19 12 -14 -1 22 -51 18
-27 48 -75 66 -108 28 -53 44 -68 120 -119 103 -67 160 -119 160 -145 0 -10
-16 -31 -35 -45 -19 -15 -35 -23 -35 -19 0 4 -9 -5 -20 -22 -11 -16 -20 -24
-20 -17 0 13 -77 17 -96 4 -5 -4 -27 -36 -48 -72 -20 -36 -46 -80 -57 -97
l-21 -33 51 0 c59 0 98 -16 107 -43 10 -33 6 -34 -168 -25 -50 3 -40 38 55
198 28 47 54 86 58 88 16 7 -22 76 -109 197 -49 68 -178 288 -192 326 -7 20
-25 44 -40 52 -24 15 -29 15 -49 1 -12 -9 -33 -36 -46 -62 -14 -26 -35 -60
-47 -75 -18 -23 -22 -37 -18 -80 8 -97 2 -161 -18 -205 -16 -35 -20 -39 -25
-23 -2 10 1 30 9 43 34 59 35 70 20 148 -21 101 -20 142 3 171 10 13 33 53 51
89 45 92 74 120 114 113 22 -3 36 0 45 11 12 15 20 11 71 -38 36 -34 72 -59
99 -67z m860 -5 c62 -37 121 -179 121 -293 l0 -70 43 -25 c23 -13 91 -51 151
-83 125 -67 142 -85 109 -113 -30 -24 -43 -20 -191 51 -137 67 -147 78 -138
162 3 26 8 52 11 57 10 16 -36 115 -68 145 -48 46 -77 57 -141 56 -33 -1 -61
-3 -63 -4 -1 -2 -10 -42 -20 -90 -9 -48 -20 -87 -25 -87 -14 0 -9 55 8 96 11
27 14 54 10 88 -7 65 5 86 52 86 20 1 53 9 72 20 43 23 37 23 69 4z m-1814
-44 c-9 -18 -19 -30 -21 -27 -3 2 3 18 13 35 10 17 19 29 21 27 2 -2 -4 -17
-13 -35z m3970 -12 c36 -16 32 -45 -16 -103 l-40 -49 23 -18 c13 -10 33 -18
45 -18 12 0 26 -6 30 -12 13 -21 51 -38 68 -32 9 4 27 23 40 43 14 19 25 31
25 26 1 -6 8 1 16 15 15 25 15 25 10 2 -2 -13 0 -36 5 -51 7 -19 6 -39 -3 -67
-14 -43 -51 -62 -120 -63 -42 -1 -45 -5 -22 -28 21 -21 11 -62 -34 -143 -46
-81 -80 -152 -88 -184 -7 -28 -58 -56 -107 -59 -28 -2 -32 1 -30 23 0 14 28
82 61 150 33 69 66 142 73 164 8 21 25 48 40 60 26 22 28 46 3 46 -7 0 -21 11
-30 25 -9 14 -25 25 -35 25 -14 0 -19 7 -19 28 0 31 -32 68 -49 57 -26 -15 6
99 41 148 22 30 66 36 113 15z m-4089 -233 c-5 -27 -13 -36 -33 -41 -29 -8
-58 6 -58 27 0 9 14 15 38 17 28 2 37 8 37 21 0 21 13 37 18 21 2 -6 1 -27 -2
-45z m6336 -103 c47 -45 48 -45 92 -35 70 16 119 -12 132 -74 6 -29 -9 -51
-38 -57 -7 -2 -26 -8 -43 -15 -23 -10 -26 -14 -15 -21 8 -6 23 -10 33 -10 9 0
17 -4 17 -10 0 -13 -57 -13 -65 0 -4 6 -42 10 -91 9 -96 -2 -102 -9 -61 -70
16 -24 31 -35 53 -37 23 -2 35 -12 49 -40 24 -44 73 -102 87 -102 7 0 6 5 -1
14 -8 9 -8 22 0 43 l10 30 61 -63 c58 -61 63 -64 109 -64 60 0 91 -14 112 -50
46 -78 7 -101 -170 -99 -102 1 -135 5 -163 19 -30 16 -70 64 -70 85 0 8 42 2
75 -11 13 -5 3 11 -28 45 -47 54 -107 136 -107 149 0 4 -20 28 -43 53 -26 26
-43 54 -42 66 1 11 18 44 39 72 38 51 38 52 20 79 -9 15 -34 47 -55 72 -45 56
-69 101 -69 134 0 25 1 25 63 -21 34 -25 83 -67 109 -91z m-3023 87 c16 -46
14 -96 -4 -103 -8 -3 -15 -2 -15 2 0 5 -8 17 -19 28 -44 47 -45 70 -6 92 29
17 32 15 44 -19z m657 -44 c8 -20 -22 -68 -103 -167 -111 -136 -145 -169 -168
-166 -11 2 -19 9 -17 16 1 6 -3 12 -9 12 -18 0 1 61 34 110 55 80 127 169 155
189 33 25 100 28 108 6z m-4074 -242 c-10 -10 -27 -23 -37 -29 -10 -6 -23 -19
-29 -29 -29 -52 -46 -56 -76 -18 -25 32 -15 45 34 49 20 2 52 12 73 23 47 25
58 26 35 4z m-32 -37 c0 -2 -8 -10 -17 -17 -16 -13 -17 -12 -4 4 13 16 21 21
21 13z m-317 -554 c35 -36 35 -50 1 -23 -28 22 -50 28 -39 11 3 -5 2 -10 -4
-10 -5 0 -13 5 -16 11 -4 6 -13 8 -21 5 -17 -7 -18 6 -2 22 20 20 53 14 81
-16z m5512 -178 c14 -15 25 -35 25 -45 0 -16 -6 -18 -35 -14 -46 5 -103 44
-83 56 7 5 9 9 5 9 -5 0 -5 5 -2 10 12 20 65 11 90 -16z m-5107 -77 c16 -18 4
-31 -56 -61 -49 -25 -53 -30 -47 -53 5 -23 5 -24 -10 -9 -9 9 -25 16 -36 16
-16 0 -20 6 -17 28 2 22 14 32 68 59 74 36 83 38 98 20z m102 -62 c0 -2 -5
-28 -11 -56 -11 -48 -13 -51 -25 -34 -27 36 -12 95 23 95 7 0 13 -2 13 -5z
m32 -267 c-9 -35 -36 -49 -56 -28 -8 9 -4 17 18 35 23 18 27 28 22 48 -3 14 0
38 6 54 12 27 13 27 16 -24 2 -28 -1 -66 -6 -85z m5026 75 c24 -27 53 -65 63
-85 19 -37 26 -65 11 -41 -5 7 -30 17 -56 22 -26 5 -54 15 -61 22 -13 15 -28
113 -18 123 11 10 16 7 61 -41z m-4958 -132 c0 -5 -7 -22 -15 -37 -8 -16 -15
-37 -15 -47 0 -10 -4 -15 -10 -12 -15 9 -12 58 6 83 15 22 34 29 34 13z m311
-218 c-8 -7 -21 -13 -28 -13 -7 0 -28 -8 -48 -17 -27 -13 -38 -26 -46 -56 -6
-21 -8 -45 -5 -53 4 -11 1 -12 -13 -5 -12 7 -24 6 -37 -3 -10 -7 -31 -16 -45
-19 -29 -7 -38 -29 -39 -87 l-1 -35 -14 25 c-8 14 -14 35 -15 48 0 27 32 93
54 111 9 8 16 24 16 36 0 30 41 62 95 76 23 6 62 24 86 40 l44 29 6 -33 c3
-22 0 -36 -10 -44z m1013 -50 c-7 -51 -42 -158 -43 -133 -1 29 37 180 45 180
3 0 2 -21 -2 -47z m-601 -10 c10 -10 -13 -33 -33 -33 -13 0 -17 6 -13 20 5 19
33 27 46 13z m653 -465 c4 -6 8 -29 9 -50 4 -71 86 -124 153 -100 38 13 -6 43
542 -364 118 -88 257 -191 308 -228 64 -47 89 -72 80 -77 -7 -4 -18 -3 -24 2
-14 11 -3 11 -314 6 -135 -2 -271 -1 -303 3 -32 3 -60 3 -63 -1 -2 -4 -13 -5
-24 -2 -12 3 -20 0 -20 -7 0 -7 -8 -9 -20 -5 -27 9 -87 9 -150 0 -29 -4 -50
-3 -47 1 3 5 -15 7 -39 5 -24 -1 -52 0 -62 5 -9 4 -21 6 -27 5 -20 -6 -321 -6
-377 -1 -31 3 -55 3 -53 -1 2 -3 -9 -6 -25 -6 -17 0 -30 4 -30 9 0 5 -10 4
-21 -3 -16 -8 -23 -8 -29 1 -5 9 -9 9 -14 1 -4 -6 -12 -9 -17 -5 -17 10 -110
13 -135 4 -14 -6 -23 -7 -21 -2 3 4 -22 7 -54 8 -32 1 -59 -2 -59 -7 0 -10
-71 1 -88 14 -10 8 -16 8 -20 0 -10 -16 -72 -27 -72 -13 0 6 -4 9 -9 5 -6 -3
-28 -1 -50 4 -38 8 -67 -1 -39 -12 7 -3 -7 -5 -32 -5 -25 0 -37 2 -27 5 33 9
16 18 -25 14 -36 -4 -39 -5 -18 -11 23 -6 21 -7 -15 -15 -54 -12 -88 -13 -100
-5 -16 12 -85 17 -85 7 0 -5 -6 -4 -14 2 -11 9 -16 9 -21 0 -6 -8 -10 -7 -16
2 -6 10 -9 11 -9 2 0 -7 -4 -13 -10 -13 -5 0 -7 7 -4 15 4 10 0 15 -11 15 -10
0 -15 -5 -12 -13 3 -9 -2 -13 -16 -12 -11 1 -23 7 -25 13 -5 17 -22 15 -22 -3
0 -17 -25 -20 -35 -5 -6 9 -41 8 -120 -5 -16 -3 -42 -7 -57 -9 -16 -3 -34 1
-41 9 -9 9 -19 10 -30 3 -18 -9 -37 -3 -37 12 0 4 9 6 20 3 14 -4 20 0 20 11
0 9 7 16 15 16 8 0 15 5 15 10 0 13 -23 13 -37 -1 -8 -8 -18 -6 -37 6 -26 17
-56 15 -56 -5 0 -5 12 -10 26 -10 23 0 24 -1 10 -16 -9 -8 -16 -21 -17 -27 0
-7 -4 -2 -9 10 -6 15 -15 21 -25 17 -9 -4 -14 -13 -11 -20 6 -16 -10 -17 -39
-3 -18 8 -18 9 4 5 18 -4 21 -2 13 6 -9 9 -4 16 18 30 17 10 30 22 30 28 0 14
-13 13 -29 -3 -10 -10 -15 -8 -26 7 -16 21 -95 40 -95 22 0 -6 -9 -17 -20 -24
-11 -7 -20 -10 -20 -8 0 2 -3 11 -6 20 -4 12 0 16 15 16 12 0 21 6 21 13 0 8
12 11 38 9 20 -2 50 -3 66 -2 24 0 28 -3 23 -20 -4 -17 -2 -19 21 -14 15 4 31
9 37 13 10 5 15 6 67 9 21 2 26 6 21 19 -5 12 -3 14 7 8 8 -5 11 -3 8 6 -5 14
-29 15 -167 9 -48 -2 -65 8 -51 29 7 12 11 12 24 2 9 -8 16 -10 16 -5 0 4 5 3
12 -4 18 -18 28 -15 28 8 0 11 5 20 10 20 6 0 9 6 8 13 -2 6 4 13 12 13 8 1
29 3 45 4 18 1 23 4 13 7 -10 2 -18 11 -18 19 0 8 -6 14 -12 14 -27 0 18 20
45 20 24 0 27 3 21 24 -7 28 17 45 66 49 17 1 30 5 30 9 0 11 -99 30 -124 24
-14 -3 -35 -2 -48 3 -27 11 -21 13 47 13 28 0 41 2 30 4 -58 14 -58 24 0 31
30 3 35 1 35 -18 0 -14 5 -19 15 -16 8 4 17 2 20 -4 4 -5 10 -7 15 -4 5 3 11
1 15 -4 4 -7 16 -6 33 2 30 13 43 27 36 39 -9 14 -34 9 -34 -7 0 -8 -6 -15
-14 -15 -25 0 -27 18 -6 38 24 22 139 45 155 31 14 -14 25 -11 25 9 0 33 15
45 39 32 16 -8 20 -17 15 -32 -5 -18 -2 -17 37 9 24 16 52 33 62 36 10 4 16
11 13 15 -6 10 56 42 79 42 9 0 14 -8 12 -22 -1 -17 4 -24 22 -26 28 -4 43 9
45 40 1 30 53 39 72 13 8 -11 20 -15 33 -10 12 4 21 2 21 -4 0 -6 15 -11 33
-11 21 0 28 3 19 9 -11 6 -10 10 5 15 17 7 17 8 -1 22 -16 11 -17 17 -7 27 10
10 15 8 26 -6 11 -16 22 -17 89 -11 54 5 76 3 76 -5 0 -6 7 -11 16 -11 14 0
14 3 4 15 -10 12 -9 15 5 15 14 0 15 3 5 15 -11 13 -7 15 28 15 23 0 45 6 52
15 7 8 18 14 24 13 16 -2 107 13 134 23 19 7 27 5 41 -13 11 -13 23 -18 30
-13 11 6 10 9 0 16 -10 6 -6 9 13 9 14 0 28 5 30 10 3 9 85 13 153 9 11 -1 54
6 95 15 41 9 94 16 117 16 24 0 43 5 46 13 4 9 8 8 16 -3 6 -8 11 -13 12 -10
0 3 2 14 4 25 2 10 -2 26 -8 34 -10 12 -9 13 10 3 12 -7 25 -17 29 -24z m3496
-17 c19 -7 29 -7 34 0 4 8 9 7 14 -2 5 -8 34 -13 77 -14 93 -3 100 -4 88 -13
-39 -28 24 -77 78 -61 17 5 33 13 37 19 8 13 66 -6 73 -24 3 -8 15 -12 31 -9
21 4 28 0 36 -22 6 -15 8 -31 4 -36 -3 -5 0 -9 5 -9 6 0 11 9 11 19 0 11 5 23
10 26 6 3 10 2 10 -4 0 -5 18 -17 40 -27 22 -10 40 -21 40 -26 0 -20 41 -6 50
17 10 27 30 34 30 11 0 -9 9 -12 28 -9 l27 4 -25 -15 c-14 -9 -33 -19 -42 -22
-35 -13 -18 -27 23 -20 35 6 40 4 35 -9 -4 -13 -1 -15 14 -11 11 3 28 8 38 11
30 8 44 -8 26 -33 -16 -23 -44 -30 -44 -11 0 6 -7 3 -16 -6 -9 -9 -14 -18 -11
-22 3 -3 37 -5 76 -4 75 1 93 -9 65 -36 -15 -16 -15 -18 6 -35 46 -37 85 -15
51 29 -23 28 -21 43 3 24 8 -7 19 -10 24 -7 5 3 8 -5 8 -17 -1 -22 4 -24 39
-11 16 6 18 5 8 -7 -19 -19 -16 -27 10 -32 20 -4 19 -4 -4 -6 -15 0 -33 -9
-40 -18 -12 -15 -12 -16 3 -10 9 3 18 2 20 -3 2 -5 13 -11 25 -13 11 -1 27 -8
35 -14 7 -6 22 -13 33 -16 19 -5 19 -5 -2 -12 -12 -4 -24 -13 -27 -21 -4 -11
-10 -12 -25 -4 -23 12 -31 13 -31 2 0 -4 16 -16 35 -26 44 -24 38 -31 -23 -28
-31 2 -42 0 -33 -7 8 -5 10 -14 6 -21 -6 -9 -3 -10 10 -3 12 7 26 6 46 -4 30
-15 33 -25 19 -58 -8 -19 -11 -17 -14 15 -1 19 -52 26 -71 10 -20 -17 -40 -3
-23 17 10 13 9 15 -7 11 -13 -2 -20 -11 -19 -26 0 -12 -4 -22 -10 -22 -5 0 1
-10 14 -22 22 -21 23 -23 6 -26 -10 -2 -30 2 -43 9 -16 9 -27 10 -31 3 -8 -12
-92 -13 -92 -2 0 5 -9 8 -20 8 -11 0 -20 -4 -20 -10 0 -5 5 -10 12 -10 6 0 4
-6 -6 -13 -17 -12 -15 -14 18 -15 20 -1 36 2 36 7 0 5 7 12 16 15 10 4 13 2 8
-6 -5 -8 -2 -9 9 -5 9 3 27 2 39 -3 22 -8 22 -9 -5 -9 -16 -1 -26 -5 -22 -11
9 -15 45 -12 51 5 3 8 26 17 50 21 48 7 65 21 43 35 -21 14 39 -1 70 -17 35
-19 44 -18 59 6 8 13 17 18 25 13 7 -4 18 -8 26 -8 8 0 16 -6 19 -14 3 -10 0
-11 -9 -5 -19 12 -32 12 -47 1 -7 -6 -42 -11 -79 -12 -41 -2 -69 -8 -75 -16
-7 -10 -11 -11 -14 -3 -5 13 -44 7 -44 -6 0 -11 32 -23 55 -21 15 2 17 0 7
-11 -6 -8 -9 -18 -5 -21 3 -4 -9 -5 -28 -3 -41 5 -81 -3 -73 -15 3 -5 -17 -8
-45 -7 -28 1 -45 6 -39 10 7 3 26 4 43 2 29 -5 29 -5 10 12 -20 16 -20 16 5
11 28 -7 70 1 70 13 0 5 -15 8 -32 8 -74 -2 -144 6 -153 18 -5 7 -21 16 -35
19 -20 5 -26 2 -27 -12 -1 -14 6 -18 29 -18 18 0 33 -6 36 -14 4 -11 -2 -13
-28 -8 -26 6 -31 4 -26 -8 4 -11 -1 -15 -18 -15 -32 0 -39 10 -18 27 16 14 16
14 -3 8 -44 -16 -55 -17 -55 -7 0 6 -16 10 -35 9 -19 -1 -35 -5 -35 -9 0 -5
-11 -8 -25 -8 -14 0 -25 4 -25 10 0 6 -10 5 -25 -2 -14 -6 -25 -15 -25 -20 0
-13 -17 -9 -33 7 -12 11 -27 13 -61 9 -25 -4 -46 -10 -46 -14 0 -13 -75 -27
-97 -19 -11 4 -40 3 -64 -3 -24 -5 -58 -7 -76 -4 -19 3 -34 0 -37 -7 -5 -9 -7
-9 -12 0 -3 7 -18 9 -41 6 -24 -4 -38 -2 -43 8 -7 11 -10 10 -16 -4 -3 -9 -16
-16 -28 -16 -16 1 -17 2 -3 6 19 5 22 18 7 28 -6 3 -17 -1 -25 -9 -12 -12 -22
-13 -41 -6 -14 6 -29 8 -34 5 -4 -2 -46 -5 -94 -6 -57 -1 -86 -5 -86 -13 0 -6
-4 -5 -9 3 -6 10 -32 16 -76 18 -41 2 -64 -1 -60 -7 10 -16 -15 -12 -31 5 -16
16 -34 20 -34 8 0 -12 -239 -13 -246 -2 -3 5 -10 7 -15 3 -19 -11 -59 -14 -59
-4 0 7 -8 9 -20 5 -11 -3 -24 -3 -30 0 -16 10 -220 11 -220 2 0 -5 -5 -5 -12
-1 -23 14 -81 15 -89 2 -5 -7 -9 -8 -9 -2 0 11 -96 17 -220 15 -91 -2 -164 0
-168 3 -1 2 54 43 123 92 69 49 154 109 189 134 35 25 88 62 117 83 30 21 99
70 154 109 240 171 367 259 381 265 25 9 90 -73 108 -136 23 -80 54 -115 100
-114 92 3 120 43 132 194 6 63 10 79 23 79 28 0 119 48 133 69 12 20 20 21
123 17 61 -2 122 -9 137 -15z m-4748 -222 c-8 -14 -24 -10 -24 6 0 9 6 12 15
9 8 -4 12 -10 9 -15z m5923 -135 c-3 -3 -12 -4 -19 -1 -8 3 -5 6 6 6 11 1 17
-2 13 -5z m-6642 -53 c-18 -17 -65 -17 -65 -1 0 6 17 10 37 10 23 0 33 -4 28
-9z m6596 -1 c5 0 9 -7 9 -16 0 -12 -7 -14 -32 -9 -18 4 -37 12 -43 18 -7 7
-6 8 2 3 6 -3 15 -1 18 5 4 5 14 8 22 5 8 -3 19 -6 24 -6z m-6492 -39 c11 -7
8 -12 -11 -25 -14 -9 -33 -14 -42 -10 -19 7 -20 11 -3 29 14 16 36 19 56 6z
m6518 -35 c-2 -5 -15 -13 -30 -17 -23 -6 -25 -5 -15 11 12 19 51 24 45 6z
m-6698 -22 c2 -2 -12 -4 -33 -4 -22 0 -35 4 -31 10 5 9 52 4 64 -6z m6769 -2
c2 -7 -5 -12 -15 -12 -11 0 -24 -5 -31 -12 -15 -15 -24 -6 -16 15 9 26 54 32
62 9z m-6684 -8 c25 -10 8 -24 -30 -24 -32 0 -42 8 -27 23 8 9 36 9 57 1z
m-149 -54 c3 -5 0 -10 -7 -10 -7 0 -24 -3 -38 -6 l-25 -5 25 15 c30 18 37 19
45 6z m106 -10 c29 -16 24 -33 -8 -25 -34 8 -37 11 -28 24 8 14 11 14 36 1z
m6773 -11 c5 -4 -12 -7 -38 -6 -45 2 -59 10 -33 20 15 6 59 -3 71 -14z m-174
-20 c0 -5 12 -14 26 -20 15 -5 24 -12 21 -15 -9 -9 -68 7 -62 16 3 5 1 11 -5
15 -16 10 -12 25 5 19 8 -4 15 -10 15 -15z m258 4 c-10 -2 -26 -2 -35 0 -10 3
-2 5 17 5 19 0 27 -2 18 -5z m-7138 -23 c0 -5 -4 -10 -9 -10 -6 0 -13 5 -16
10 -3 6 1 10 9 10 9 0 16 -4 16 -10z m124 -5 c5 -13 -5 -15 -42 -6 -2 1 0 6 3
11 9 15 32 12 39 -5z m-79 -5 c-3 -5 -10 -10 -16 -10 -5 0 -9 5 -9 10 0 6 7
10 16 10 8 0 12 -4 9 -10z m169 -5 c-6 -16 -64 -22 -64 -7 0 15 13 22 41 22
21 0 27 -4 23 -15z m6873 9 c-3 -3 -12 -4 -19 -1 -8 3 -5 6 6 6 11 1 17 -2 13
-5z m-297 -8 c0 -11 -19 -15 -25 -6 -3 5 1 10 9 10 9 0 16 -2 16 -4z m-43 -12
c-3 -3 -12 -4 -19 -1 -8 3 -5 6 6 6 11 1 17 -2 13 -5z m-6337 -14 c0 -5 -4
-10 -10 -10 -5 0 -10 5 -10 10 0 6 5 10 10 10 6 0 10 -4 10 -10z m6670 0 c0
-5 -2 -10 -4 -10 -3 0 -8 5 -11 10 -3 6 -1 10 4 10 6 0 11 -4 11 -10z m-200
-4 c0 -2 -7 -6 -15 -10 -8 -3 -15 -1 -15 4 0 6 7 10 15 10 8 0 15 -2 15 -4z
m165 -12 c12 -5 14 -9 4 -14 -14 -9 -39 -2 -39 11 0 11 12 11 35 3z m215 -4
c0 -5 -5 -10 -11 -10 -5 0 -7 5 -4 10 3 6 8 10 11 10 2 0 4 -4 4 -10z m-7593
-16 c-3 -3 -12 -4 -19 -1 -8 3 -5 6 6 6 11 1 17 -2 13 -5z m323 -4 c0 -5 -10
-10 -22 -10 -19 0 -20 2 -8 10 19 13 30 13 30 0z m105 -18 c-2 -3 -12 -1 -22
2 -15 6 -15 9 -3 16 13 8 35 -8 25 -18z m-362 1 c-7 -2 -19 -2 -25 0 -7 3 -2
5 12 5 14 0 19 -2 13 -5z m502 -3 c-28 -12 -47 -12 -40 0 3 6 18 10 33 9 24 0
25 -1 7 -9z m-135 -14 c0 -2 -13 -6 -29 -8 -17 -2 -28 -1 -25 4 5 8 54 12 54
4z m6789 -12 c2 -2 -12 -4 -33 -4 -22 0 -35 4 -31 10 5 9 52 4 64 -6z m101 6
c12 -8 9 -10 -12 -10 -16 0 -28 5 -28 10 0 13 20 13 40 0z m110 0 c12 -8 11
-10 -7 -10 -13 0 -23 5 -23 10 0 13 11 13 30 0z m-6833 -7 c-9 -2 -15 -9 -12
-14 4 -5 -1 -9 -9 -9 -10 0 -13 6 -10 15 4 8 16 14 28 14 17 -1 17 -2 3 -6z
m6660 1 c-3 -3 -12 -4 -19 -1 -8 3 -5 6 6 6 11 1 17 -2 13 -5z m-7037 -14 c0
-5 -5 -10 -11 -10 -5 0 -7 5 -4 10 3 6 8 10 11 10 2 0 4 -4 4 -10z m6900 -4
c0 -3 -4 -8 -10 -11 -5 -3 -10 -1 -10 4 0 6 5 11 10 11 6 0 10 -2 10 -4z
m-6597 -13 c-7 -2 -19 -2 -25 0 -7 3 -2 5 12 5 14 0 19 -2 13 -5z m6367 3 c0
-3 -4 -8 -10 -11 -5 -3 -10 -1 -10 4 0 6 5 11 10 11 6 0 10 -2 10 -4z m400
-16 c13 -8 13 -10 -2 -10 -9 0 -20 5 -23 10 -8 13 5 13 25 0z m350 6 c0 -2 -7
-7 -16 -10 -8 -3 -12 -2 -9 4 6 10 25 14 25 6z m-7090 -10 c0 -3 -4 -8 -10
-11 -5 -3 -10 -1 -10 4 0 6 5 11 10 11 6 0 10 -2 10 -4z m5868 -10 c4 8 21 9
47 4 39 -7 40 -7 12 -15 -15 -4 -31 -5 -34 -1 -3 3 -12 1 -20 -5 -9 -8 -17 -8
-26 0 -8 6 -18 7 -23 3 -4 -4 -2 1 5 11 11 14 16 15 23 5 6 -9 10 -10 16 -2z
m172 4 c0 -13 -20 -13 -40 0 -12 8 -9 10 13 10 15 0 27 -4 27 -10z m159 -7
c20 -8 8 -10 -53 -11 -44 -1 -85 -7 -92 -13 -9 -8 -11 -6 -7 10 4 14 15 21 42
23 52 4 82 2 110 -9z m105 8 c18 -7 18 -8 2 -14 -10 -4 -24 -1 -32 8 -17 17
-4 19 30 6z m296 -5 c-7 -7 -14 -6 -21 1 -9 9 -7 12 9 10 14 -1 18 -5 12 -11z
m285 -4 c-3 -3 -11 0 -18 7 -9 10 -8 11 6 5 10 -3 15 -9 12 -12z m-7142 1 c-7
-2 -19 -2 -25 0 -7 3 -2 5 12 5 14 0 19 -2 13 -5z m393 -31 c-10 -2 -22 2 -27
10 -16 24 -9 29 18 11 23 -15 24 -18 9 -21z m314 27 c0 -7 10 -9 25 -7 14 3
28 2 30 -2 3 -5 16 -7 30 -5 14 1 28 -2 31 -7 3 -4 10 -6 15 -3 5 4 9 1 9 -4
0 -6 -7 -11 -15 -11 -8 0 -15 5 -15 11 0 8 -4 8 -14 0 -11 -9 -19 -9 -35 1
-16 10 -23 10 -33 0 -14 -14 -58 -16 -58 -3 0 5 6 12 13 14 9 4 8 8 -3 16 -13
9 -13 11 3 11 9 0 17 -5 17 -11z m6029 0 c-18 -11 -39 -11 -39 0 0 5 12 9 26
9 18 0 22 -3 13 -9z m178 5 c-3 -3 -12 -4 -19 -1 -8 3 -5 6 6 6 11 1 17 -2 13
-5z m-6800 -10 c-3 -3 -12 -4 -19 -1 -8 3 -5 6 6 6 11 1 17 -2 13 -5z m88 -4
c3 -5 -1 -10 -10 -10 -9 0 -13 5 -10 10 3 6 8 10 10 10 2 0 7 -4 10 -10z m136
0 c5 0 9 -3 9 -7 0 -5 -11 -8 -25 -8 -14 0 -25 6 -25 14 0 8 6 11 16 7 9 -3
20 -6 25 -6z m323 3 c-5 -5 -12 -12 -16 -18 -4 -6 -8 -2 -8 8 0 9 7 17 17 17
9 0 12 -3 7 -7z m659 0 c-7 -2 -19 -2 -25 0 -7 3 -2 5 12 5 14 0 19 -2 13 -5z
m4662 -3 c-3 -5 -14 -10 -23 -10 -15 0 -15 2 -2 10 20 13 33 13 25 0z m250 0
c-3 -5 -11 -10 -16 -10 -6 0 -7 5 -4 10 3 6 11 10 16 10 6 0 7 -4 4 -10z m825
0 c11 -7 1 -9 -35 -9 -44 1 -46 2 -20 9 17 4 32 8 35 9 3 0 12 -4 20 -9z m437
4 c-3 -3 -12 -4 -19 -1 -8 3 -5 6 6 6 11 1 17 -2 13 -5z m-6952 -23 c-6 -11
-99 -11 -115 0 -11 7 -4 8 21 3 20 -3 39 -1 43 4 3 5 17 7 31 5 13 -3 23 -8
20 -12z m30 9 c3 -5 1 -10 -4 -10 -6 0 -11 5 -11 10 0 6 2 10 4 10 3 0 8 -4
11 -10z m55 0 c0 -5 -10 -10 -22 -10 -19 0 -20 2 -8 10 19 13 30 13 30 0z
m5400 -5 c-7 -8 -17 -12 -23 -8 -6 4 -3 9 9 14 27 11 28 11 14 -6z m1387 9
c-3 -3 -12 -4 -19 -1 -8 3 -5 6 6 6 11 1 17 -2 13 -5z m-827 -14 c0 -5 -8 -10
-17 -10 -15 0 -16 2 -3 10 19 12 20 12 20 0z m170 6 c0 -11 -19 -15 -25 -6 -3
5 1 10 9 10 9 0 16 -2 16 -4z m107 -2 c-3 -3 -12 -4 -19 -1 -8 3 -5 6 6 6 11
1 17 -2 13 -5z m-6990 -10 c-3 -3 -12 -4 -19 -1 -8 3 -5 6 6 6 11 1 17 -2 13
-5z m1040 0 c-3 -3 -12 -4 -19 -1 -8 3 -5 6 6 6 11 1 17 -2 13 -5z m5433 2 c0
-11 -19 -15 -25 -6 -3 5 1 10 9 10 9 0 16 -2 16 -4z m97 -12 c-3 -3 -12 -4
-19 -1 -8 3 -5 6 6 6 11 1 17 -2 13 -5z m360 0 c-3 -3 -12 -4 -19 -1 -8 3 -5
6 6 6 11 1 17 -2 13 -5z m113 -4 c0 -5 -7 -7 -15 -4 -8 4 -15 8 -15 10 0 2 7
4 15 4 8 0 15 -4 15 -10z m225 0 c3 -5 1 -10 -4 -10 -6 0 -11 5 -11 10 0 6 2
10 4 10 3 0 8 -4 11 -10z m85 2 c0 -4 -10 -9 -22 -9 -18 -2 -20 0 -8 7 18 12
30 13 30 2z m-6895 -12 c-3 -5 -12 -10 -18 -10 -7 0 -6 4 3 10 19 12 23 12 15
0z m5942 4 c-3 -3 -12 -4 -19 -1 -8 3 -5 6 6 6 11 1 17 -2 13 -5z m500 -20
c-3 -3 -12 -4 -19 -1 -8 3 -5 6 6 6 11 1 17 -2 13 -5z m263 -4 c18 -12 2 -12
-25 0 -13 6 -15 9 -5 9 8 0 22 -4 30 -9z"/>
<path d="M4911 9208 c-5 -14 -15 -29 -21 -33 -18 -11 0 -26 19 -15 24 12 33
38 22 58 -8 15 -11 13 -20 -10z"/>
<path d="M4835 8913 c-28 -14 -123 -75 -213 -136 -90 -60 -166 -107 -168 -104
-3 3 30 29 73 58 43 28 83 56 88 62 17 16 -37 -14 -95 -53 -30 -21 -93 -62
-140 -91 -47 -30 -89 -57 -95 -61 -15 -12 -228 -151 -257 -168 -14 -8 -52 -33
-84 -54 -134 -89 -510 -335 -605 -396 -57 -36 -128 -81 -158 -101 -137 -89
-542 -340 -650 -404 -65 -38 -129 -78 -142 -88 -23 -17 -22 -18 66 -12 94 7
115 15 210 84 43 31 249 166 385 251 47 30 190 124 318 209 129 86 245 163
258 171 13 8 43 37 66 64 39 45 177 146 200 146 6 0 22 9 37 19 15 11 33 21
41 23 7 2 21 10 30 18 52 47 72 60 83 54 7 -4 9 -4 5 1 -11 11 36 54 125 114
70 47 118 71 71 36 -30 -23 -6 -18 27 6 25 18 32 19 47 7 15 -12 16 -11 4 4
-11 14 -5 21 50 54 35 21 86 54 113 75 28 20 66 45 85 55 19 10 37 22 40 25 9
10 154 106 187 123 18 9 40 16 50 16 34 -1 70 -43 82 -95 6 -29 15 -263 21
-560 10 -504 18 -681 30 -621 3 16 2 151 -2 300 -3 149 -8 417 -11 596 -5 353
-8 371 -60 390 -44 15 -57 13 -112 -17z m-386 -247 c-17 -17 -143 -95 -147
-92 -5 5 128 94 142 95 5 1 7 -1 5 -3z"/>
<path d="M5225 8831 c-13 -25 -13 -64 -5 -288 5 -142 12 -303 15 -358 2 -55 7
-179 10 -275 11 -341 -1 -330 384 -365 327 -30 349 -31 386 -11 47 25 106 21
151 -12 35 -25 52 -30 139 -36 55 -4 244 -20 420 -37 176 -16 424 -39 550 -49
127 -11 273 -25 325 -30 171 -19 247 -22 230 -10 -20 15 -342 203 -460 270
-122 68 -211 121 -230 136 -8 6 -40 25 -70 41 -30 17 -84 49 -120 71 -68 43
-270 165 -330 199 -111 65 -303 184 -316 198 -9 8 -21 15 -28 15 -8 0 -19 6
-25 14 -7 8 -26 19 -42 25 -27 9 -24 5 22 -37 82 -72 109 -103 116 -130 8 -32
-4 -38 -96 -51 -229 -32 -244 -33 -283 -17 -24 10 -35 21 -32 30 3 9 -6 15
-28 20 -25 5 -61 35 -152 129 -101 105 -131 128 -205 167 -62 33 -95 57 -118
88 -18 24 -33 47 -33 52 0 5 16 21 36 36 27 21 50 29 94 32 78 6 143 -17 242
-84 80 -55 131 -84 145 -84 4 0 -35 28 -87 62 -52 34 -151 98 -220 144 -173
114 -286 174 -332 174 -31 0 -40 -5 -53 -29z m453 -715 c100 -40 160 -88 301
-236 109 -115 131 -143 121 -155 -26 -32 -149 -126 -183 -140 -57 -24 -130
-20 -164 9 l-28 24 23 24 c12 13 22 27 22 31 0 4 -10 7 -22 7 -67 0 -356 226
-395 308 -16 33 -16 37 3 70 23 42 59 71 105 83 53 13 152 2 217 -25z m757
-157 c77 -38 109 -75 89 -106 -9 -15 -24 -18 -77 -17 -86 2 -116 10 -125 34
-5 14 -11 17 -22 9 -12 -8 -8 -16 25 -44 168 -147 511 -306 609 -281 33 8 33
18 -3 69 -43 62 -100 118 -190 186 -43 33 -81 68 -85 77 -5 13 -14 15 -46 10
-33 -5 -41 -3 -54 16 -18 25 -20 56 -7 78 8 12 18 12 68 -4 195 -61 443 -246
508 -379 31 -64 27 -92 -16 -133 -30 -28 -33 -29 -132 -28 -126 1 -239 32
-405 110 -233 110 -405 230 -457 321 -25 42 -12 79 35 105 29 16 50 19 125 16
78 -4 99 -9 160 -39z"/>
<path d="M5572 8029 c-18 -3 -35 -9 -38 -12 -11 -11 27 -66 73 -106 50 -45
192 -134 232 -146 l23 -7 -23 43 c-31 56 -177 214 -209 226 -14 5 -40 6 -58 2z"/>
<path d="M3894 8623 c4 -43 9 -95 12 -115 l6 -37 58 37 c31 20 66 42 76 48 11
7 17 14 14 16 -41 38 -155 128 -163 128 -6 0 -7 -30 -3 -77z"/>
<path d="M4182 8488 c-40 -28 -70 -53 -68 -55 5 -5 55 29 90 60 11 9 25 17 32
17 6 0 17 7 24 15 23 28 -4 15 -78 -37z"/>
<path d="M5878 8382 c-16 -2 -28 -7 -28 -12 0 -9 101 -100 111 -100 4 0 10 16
14 36 7 41 -15 68 -51 63 -4 0 -10 3 -13 8 -3 4 -18 7 -33 5z"/>
<path d="M6620 8340 c0 -14 38 -55 45 -48 10 10 -14 58 -30 58 -8 0 -15 -5
-15 -10z"/>
<path d="M6039 8268 c-15 -10 -12 -14 18 -35 18 -13 45 -23 59 -23 23 0 24 1
9 23 -8 13 -27 29 -41 35 -29 14 -25 14 -45 0z"/>
<path d="M4625 8241 c-49 -23 -117 -94 -218 -227 -75 -100 -126 -188 -115
-199 7 -8 46 29 82 78 16 21 31 35 34 32 7 -7 42 25 42 39 0 6 -9 0 -20 -14
-11 -14 -20 -20 -20 -13 0 17 106 123 170 169 77 56 159 87 161 61 1 -14 17
22 18 41 2 21 -38 52 -66 52 -16 0 -46 -9 -68 -19z"/>
<path d="M4236 8205 c4 -34 3 -46 -4 -36 -8 10 -11 7 -17 -17 -10 -48 -80
-119 -159 -162 -39 -22 -95 -56 -123 -77 -28 -21 -59 -43 -70 -50 -14 -9 -6
-10 42 -6 33 2 67 7 75 10 8 3 20 7 25 9 40 10 107 49 127 73 13 16 33 42 46
58 52 64 74 113 74 162 0 27 -5 57 -11 67 -8 15 -9 8 -5 -31z"/>
<path d="M3955 8210 c-27 -11 -86 -49 -130 -85 -70 -56 -85 -65 -121 -65 -44
0 -57 -10 -67 -48 -13 -55 18 -65 103 -33 60 23 137 78 146 104 3 10 8 16 11
13 4 -3 12 -1 18 4 7 6 33 11 59 12 25 1 46 6 46 10 0 4 5 8 11 8 16 0 38 31
39 52 0 17 -36 48 -55 47 -5 0 -32 -9 -60 -19z"/>
<path d="M4912 8212 c-6 -79 -233 -409 -322 -468 -54 -36 -170 -65 -266 -67
-73 -2 -84 1 -122 26 -23 15 -42 35 -43 45 0 9 -5 4 -9 -12 -6 -18 -5 -36 1
-48 5 -10 7 -18 3 -18 -4 0 3 -12 17 -27 19 -21 20 -25 6 -20 -11 4 -16 3 -12
-4 4 -5 16 -7 27 -3 11 3 18 2 15 -2 -3 -5 18 -10 46 -12 47 -3 127 -9 167
-14 36 -3 70 3 84 17 8 8 22 15 30 15 9 0 16 7 16 16 0 13 6 15 28 10 17 -4
22 -3 13 2 -15 11 -1 24 21 19 7 -2 9 -2 5 1 -4 2 -3 10 3 17 7 9 7 15 1 19
-6 4 5 23 24 44 81 87 209 262 241 329 28 57 34 82 31 115 -2 24 -4 33 -5 20z"/>
<path d="M3148 8122 c-24 -3 -28 -8 -28 -36 0 -18 3 -54 6 -78 l6 -46 54 32
c29 17 54 36 54 43 0 24 -33 81 -49 85 -9 2 -28 2 -43 0z"/>
<path d="M6940 8118 c0 -7 -11 -30 -25 -50 l-25 -37 32 -24 c30 -23 91 -57
101 -57 7 0 -11 87 -27 123 -15 37 -56 69 -56 45z"/>
<path d="M3937 7766 c-20 -7 -53 -25 -71 -40 -33 -25 -44 -27 -213 -36 -98 -6
-195 -8 -215 -4 -37 6 -38 5 -38 -23 0 -16 5 -34 12 -41 27 -27 384 -8 526 28
62 16 91 18 116 11 35 -9 56 0 56 26 0 7 4 13 9 13 8 0 10 59 1 61 -59 16
-148 18 -183 5z"/>
<path d="M4013 7643 c9 -2 23 -2 30 0 6 3 -1 5 -18 5 -16 0 -22 -2 -12 -5z"/>
<path d="M7767 7604 c-26 -20 -47 -40 -47 -44 0 -21 87 -77 100 -63 6 7 30
113 30 135 0 19 -40 6 -83 -28z"/>
<path d="M3910 7620 c8 -5 20 -10 25 -10 6 0 3 5 -5 10 -8 5 -19 10 -25 10 -5
0 -3 -5 5 -10z"/>
<path d="M2455 7580 c3 -5 8 -10 11 -10 2 0 4 5 4 10 0 6 -5 10 -11 10 -5 0
-7 -4 -4 -10z"/>
<path d="M7978 7527 c-10 -23 -18 -48 -18 -56 0 -9 6 -11 18 -6 9 4 29 12 45
17 15 5 27 14 27 19 0 12 -41 69 -49 69 -3 0 -14 -19 -23 -43z"/>
<path d="M4670 7428 c-80 -8 -87 -10 -124 -47 l-39 -39 30 -16 c34 -17 43 -33
43 -77 0 -28 -35 -173 -47 -192 -3 -5 -6 -32 -7 -60 -1 -29 -6 -91 -11 -139
-11 -120 -7 -127 52 -75 98 88 291 264 355 326 113 108 146 206 91 272 -15 17
-42 38 -60 45 -36 16 -149 16 -283 2z"/>
<path d="M5497 7430 c-76 -13 -101 -61 -71 -138 18 -47 117 -153 387 -412 l98
-94 28 50 c15 27 37 64 48 83 l21 33 -20 67 c-12 36 -21 87 -22 113 -1 25 -4
44 -8 41 -5 -2 -8 3 -8 12 0 9 -4 13 -10 10 -5 -3 -10 -1 -10 5 0 6 -4 9 -9 6
-13 -8 -43 -124 -45 -179 -3 -53 -16 -69 -56 -65 -31 4 -31 25 -2 150 37 154
81 228 136 228 11 0 27 4 34 9 24 15 -13 38 -73 45 -30 3 -63 10 -73 15 -45
25 -250 37 -345 21z"/>
<path d="M4200 7399 c-36 -4 -150 -15 -255 -23 -104 -9 -233 -21 -285 -26 -52
-6 -114 -8 -137 -5 -28 4 -43 2 -43 -4 0 -15 -43 -14 -58 1 -9 9 -12 9 -12 0
0 -7 -7 -12 -15 -12 -24 0 -29 -64 -10 -154 27 -130 4 -191 -55 -142 -28 24
-46 25 -47 3 -1 -11 -7 -23 -12 -26 -6 -4 -12 -29 -15 -56 -2 -28 -9 -62 -15
-77 -6 -16 -8 -41 -5 -58 5 -23 0 -38 -26 -72 -18 -24 -47 -56 -64 -71 -17
-16 -30 -31 -28 -33 1 -2 0 -4 -3 -4 -3 0 -31 -28 -63 -63 -64 -68 -88 -114
-123 -224 -12 -40 -26 -73 -31 -73 -4 0 -8 -7 -8 -16 0 -20 -53 -41 -112 -45
-56 -3 -63 1 -54 36 4 17 21 32 51 47 25 12 45 26 45 30 0 5 17 45 38 91 21
45 47 107 57 137 15 46 35 72 117 156 l100 102 -15 29 c-9 16 -39 50 -69 76
-75 66 -100 87 -105 87 -12 0 -74 -37 -111 -67 -64 -52 -112 -74 -137 -60 -22
11 -55 46 -55 58 0 21 35 39 75 39 39 0 49 6 116 68 41 38 82 71 92 75 26 10
55 -5 131 -67 38 -31 76 -56 85 -54 8 2 22 21 30 43 8 22 25 68 38 103 l25 62
-26 31 c-14 17 -29 41 -32 54 -5 21 -10 23 -47 18 -23 -4 -55 -6 -72 -6 -55 0
-500 -27 -515 -32 -9 -3 -42 -7 -75 -10 -33 -2 -61 -9 -63 -15 -2 -5 -8 -8
-13 -5 -5 3 -19 1 -31 -6 -22 -12 -22 -12 -3 -20 18 -7 18 -8 2 -8 -10 -1 -16
-5 -13 -10 3 -4 -2 -27 -11 -49 -15 -40 -15 -44 10 -115 15 -41 54 -132 88
-203 91 -191 248 -540 274 -610 27 -71 201 -422 239 -482 39 -63 88 -90 181
-102 74 -9 82 -8 133 15 105 48 201 127 472 389 l126 121 -4 105 c-3 89 0 110
16 140 16 30 25 35 60 38 57 4 77 -26 69 -103 -3 -30 -4 -55 -1 -55 2 0 54 44
114 97 77 68 107 100 100 108 -5 7 -6 16 -2 20 4 5 2 5 -4 2 -15 -9 -44 35
-44 66 0 13 11 56 25 96 13 40 36 125 50 189 14 64 33 135 43 156 9 23 13 41
7 43 -77 27 -83 44 -56 160 31 136 30 132 52 143 22 12 47 2 88 -36 27 -25 55
-31 66 -14 3 6 0 10 -6 10 -7 0 -30 16 -50 36 -41 40 -72 46 -179 33z m-334
-218 c46 -28 60 -71 45 -132 -10 -39 -11 -56 -1 -79 19 -46 -9 -120 -46 -120
-11 0 -27 -56 -49 -170 -10 -53 -58 -160 -68 -153 -5 3 -8 0 -5 -8 2 -7 -2
-21 -10 -30 -22 -25 -40 -83 -37 -118 2 -24 -4 -37 -27 -57 -17 -14 -38 -24
-47 -22 -21 4 -26 53 -8 81 8 12 20 40 27 61 7 22 28 73 47 115 31 68 63 180
63 221 -1 11 -4 10 -15 -4 -8 -11 -15 -16 -15 -11 0 5 -6 0 -14 -10 -8 -11
-12 -23 -9 -28 2 -4 1 -6 -4 -5 -4 1 -31 -14 -58 -34 -53 -39 -93 -101 -126
-197 -11 -30 -23 -59 -28 -65 -5 -6 -21 -47 -35 -91 -21 -61 -29 -114 -36
-220 -13 -182 -19 -230 -33 -249 -16 -21 -152 -44 -175 -30 -33 21 -26 51 17
74 22 11 46 30 52 42 6 12 14 79 17 150 5 133 -2 170 -36 183 -11 4 -13 -1 -7
-22 4 -20 3 -25 -4 -17 -6 5 -17 36 -23 67 -15 72 -8 88 114 235 49 59 105
126 124 150 39 46 212 188 287 234 26 17 44 34 41 40 -4 5 -22 17 -41 24 -37
16 -63 61 -63 109 0 83 109 133 186 86z"/>
<path d="M3332 6351 c-6 -17 -9 -31 -6 -31 7 0 25 52 20 57 -2 2 -8 -10 -14
-26z"/>
<path d="M6178 7362 l-28 -23 20 -40 c11 -21 23 -59 27 -84 4 -31 12 -49 29
-60 29 -19 31 -53 5 -87 l-20 -25 56 -64 c86 -99 133 -217 100 -251 -9 -9 -13
-18 -10 -22 4 -3 2 -6 -3 -6 -5 0 -18 -22 -29 -50 -11 -27 -25 -50 -31 -50 -7
0 -14 -4 -16 -10 -5 -15 -68 -31 -63 -17 2 7 15 49 30 94 l27 83 -22 42 c-12
24 -38 61 -57 83 l-36 40 6 -35 c12 -66 18 -296 8 -275 -9 18 -10 18 -10 2 -2
-50 38 -92 429 -438 140 -124 300 -267 355 -318 107 -98 178 -141 234 -141 63
0 91 27 165 161 424 768 591 1090 621 1194 16 53 16 61 1 91 -9 20 -31 41 -55
54 -45 23 -148 40 -201 33 -27 -3 -31 -2 -20 6 8 6 10 11 4 11 -6 0 -134 10
-285 21 -151 12 -292 21 -314 21 -21 -1 -44 3 -50 7 -12 10 -117 22 -230 27
-44 2 -123 8 -175 15 -52 6 -171 17 -264 23 l-169 12 -29 -24z m1185 -316 c18
-7 45 -28 60 -45 26 -31 29 -41 44 -155 7 -56 10 -60 39 -68 48 -12 67 -41 72
-106 7 -102 -21 -153 -67 -123 -18 12 -6 65 12 54 8 -4 7 -1 -2 10 -11 14 -11
20 -1 32 10 13 9 15 -8 15 -12 0 -23 -4 -27 -10 -3 -5 -13 -6 -22 -3 -11 4
-14 3 -9 -5 5 -8 2 -10 -8 -6 -9 4 -16 1 -16 -6 0 -7 -7 -10 -15 -6 -8 3 -15
1 -15 -5 0 -6 -7 -9 -15 -5 -8 3 -15 2 -15 -2 0 -4 -9 -8 -20 -9 -23 -2 -152
-111 -193 -163 -15 -18 -30 -45 -33 -60 -3 -14 -14 -44 -25 -67 -27 -61 -24
-123 16 -267 43 -158 44 -173 8 -183 -35 -9 -112 -9 -135 0 -26 9 -22 42 7 65
32 25 32 43 -1 204 l-26 129 46 95 c25 53 46 98 46 100 0 2 -10 2 -22 -1 -13
-3 -36 -8 -53 -11 -16 -3 -100 -7 -185 -9 -133 -2 -162 -5 -203 -24 -27 -11
-67 -21 -90 -21 -85 0 -179 72 -181 139 -1 49 20 51 92 7 31 -20 65 -36 73
-36 9 0 49 14 90 31 69 29 80 30 159 25 57 -3 103 0 140 9 54 14 54 14 11 11
-55 -5 -85 20 -75 62 10 42 20 47 97 48 40 1 86 2 104 3 22 1 50 16 97 55 41
34 82 58 113 66 26 7 54 18 61 23 19 15 9 57 -24 106 -32 48 -27 83 14 105 34
19 45 19 85 2z"/>
<path d="M6080 7308 l-35 -21 34 -14 c30 -13 34 -12 47 4 18 24 17 33 -2 33
-8 0 -12 5 -9 10 9 14 5 13 -35 -12z"/>
<path d="M2101 7181 c-27 -17 -26 -24 5 -58 23 -25 59 -93 114 -218 26 -58 52
-111 67 -140 28 -51 102 -205 98 -205 -3 0 9 -27 26 -60 28 -55 49 -70 49 -35
0 9 -6 12 -17 8 -14 -5 -15 -1 -11 35 5 33 3 40 -9 35 -11 -5 -14 -1 -9 13 7
24 -19 114 -27 94 -3 -8 -6 2 -6 23 -1 20 -5 37 -9 37 -13 0 -43 81 -35 93 3
6 2 7 -4 4 -5 -3 -24 29 -42 71 -18 42 -37 86 -42 97 -7 18 -39 191 -39 215 0
15 -84 8 -109 -9z"/>
<path d="M2061 7154 c0 -11 3 -14 6 -6 3 7 2 16 -1 19 -3 4 -6 -2 -5 -13z"/>
<path d="M3241 7074 c0 -11 3 -14 6 -6 3 7 2 16 -1 19 -3 4 -6 -2 -5 -13z"/>
<path d="M2018 6961 c-17 -24 -104 -124 -143 -165 -42 -43 -130 -157 -138
-178 -3 -10 1 -24 9 -33 19 -18 46 -7 70 30 17 26 68 45 121 45 56 0 103 -87
103 -190 0 -33 -3 -41 -10 -30 -5 8 -10 24 -10 36 0 23 -61 108 -70 96 -3 -4
-18 -14 -34 -22 -45 -23 -68 -53 -72 -95 -12 -100 -12 -98 34 -123 66 -37 76
-59 64 -140 -6 -37 -13 -75 -18 -86 -7 -17 -5 -17 24 -2 25 13 30 22 33 60 2
25 0 42 -5 38 -5 -3 -7 4 -4 15 3 11 -1 28 -8 38 -21 29 -17 51 17 90 36 40
60 44 108 14 l34 -20 -5 118 c-6 133 -18 170 -73 232 l-37 41 25 0 c67 0 101
-92 102 -277 2 -127 3 -132 28 -163 31 -36 35 -84 11 -118 -9 -13 -41 -48 -71
-79 -45 -46 -54 -61 -50 -82 9 -43 93 -184 136 -228 35 -35 41 -48 41 -85 l1
-43 21 40 c11 22 31 54 43 70 12 17 39 82 58 145 20 63 50 137 67 164 26 40
30 55 25 86 -5 29 -3 39 10 44 12 4 14 10 6 25 -6 10 -8 21 -5 23 2 3 -13 43
-34 89 -22 46 -47 105 -56 132 -10 26 -19 47 -21 47 -2 0 -1 -18 2 -41 6 -42
-18 -100 -58 -140 -11 -11 -19 -23 -19 -29 0 -5 -5 -10 -11 -10 -6 0 -8 7 -4
18 5 14 4 15 -6 5 -32 -32 -26 -6 16 74 66 127 64 148 -30 353 -83 182 -119
230 -171 230 -21 0 -38 -7 -46 -19z"/>
<path d="M6011 6785 c-26 -62 -23 -76 17 -103 22 -14 22 -14 21 49 -1 35 -4
75 -8 88 -6 21 -9 17 -30 -34z"/>
<path d="M2430 6771 c0 -6 4 -13 10 -16 6 -3 7 1 4 9 -7 18 -14 21 -14 7z"/>
<path d="M2451 6735 c0 -5 11 -30 24 -55 13 -25 24 -40 24 -35 0 6 -11 30 -24
55 -13 25 -24 41 -24 35z"/>
<path d="M1446 6551 c-3 -5 1 -12 10 -15 27 -11 37 -7 24 9 -14 17 -26 19 -34
6z"/>
<path d="M1667 6421 c27 -38 43 -44 43 -17 0 18 -38 56 -56 56 -12 0 -8 -10
13 -39z"/>
<path d="M2455 6431 c-6 -20 23 -91 37 -91 4 0 8 -10 8 -22 0 -18 2 -20 10 -8
6 10 3 25 -11 49 -12 20 -17 41 -13 53 4 14 2 18 -5 14 -7 -5 -9 -1 -5 8 3 9
1 16 -4 16 -6 0 -13 -9 -17 -19z"/>
<path d="M1616 6386 c-3 -13 -4 -37 -1 -53 2 -15 7 -49 9 -76 3 -26 8 -53 12
-60 6 -9 4 -9 -8 1 -13 11 -17 4 -32 -55 -9 -38 -16 -90 -16 -118 0 -54 16
-125 29 -125 4 0 26 16 49 35 28 25 43 47 48 70 4 23 12 35 23 35 13 0 13 -2
2 -9 -7 -5 -12 -14 -10 -20 8 -22 100 38 112 73 3 7 9 7 20 -3 20 -16 54 -7
40 12 -15 19 -35 96 -28 107 4 6 -1 13 -10 16 -10 4 -13 13 -10 25 5 14 -1 22
-22 31 -15 7 -41 25 -57 41 -22 22 -27 33 -22 55 l6 27 -17 -30 c-10 -18 -18
-25 -21 -17 -3 10 -7 10 -18 1 -11 -9 -14 -8 -14 3 0 14 -40 58 -52 58 -3 0
-9 -11 -12 -24z"/>
<path d="M4236 6356 c-9 -12 -26 -33 -37 -49 -11 -15 -24 -25 -28 -23 -18 12
-44 -59 -47 -132 -3 -72 3 -91 28 -92 4 0 32 48 62 108 36 73 55 123 58 158 5
56 -7 66 -36 30z"/>
<path d="M1750 6345 c0 -8 5 -15 10 -15 6 0 10 7 10 15 0 8 -4 15 -10 15 -5 0
-10 -7 -10 -15z"/>
<path d="M2455 6180 c-3 -5 -1 -10 4 -10 6 0 11 5 11 10 0 6 -2 10 -4 10 -3 0
-8 -4 -11 -10z"/>
<path d="M2435 5970 c-4 -6 -10 -8 -15 -5 -9 5 -50 -84 -54 -118 -1 -12 -6
-30 -10 -39 -14 -30 -3 -53 27 -56 24 -3 30 2 48 43 23 52 38 185 21 185 -6 0
-14 -5 -17 -10z"/>
<path d="M1697 5840 c-43 -33 -82 -58 -86 -56 -5 3 -15 -11 -24 -32 -12 -29
-17 -93 -22 -297 l-5 -260 37 -28 c21 -16 61 -51 90 -78 l52 -50 26 83 c27 91
33 144 13 132 -8 -5 -9 -2 -5 10 4 10 3 15 -3 11 -14 -9 -46 30 -74 90 -29 61
-43 189 -26 239 6 19 26 46 45 60 29 22 36 36 49 98 22 111 26 138 18 138 -4
0 -42 -27 -85 -60z"/>
<path d="M1985 5851 c-3 -5 -1 -12 5 -16 5 -3 10 1 10 9 0 18 -6 21 -15 7z"/>
<path d="M1970 5802 c0 -11 -4 -24 -10 -27 -13 -8 -13 -25 -1 -25 11 0 26 59
17 67 -3 4 -6 -3 -6 -15z"/>
<path d="M1988 5726 c-27 -29 -48 -56 -48 -59 0 -4 17 -7 38 -7 49 0 95 -29
117 -75 l17 -38 19 24 c10 13 19 28 19 33 0 11 -50 98 -60 106 -4 3 -15 20
-24 38 -9 17 -20 32 -24 31 -4 -1 -28 -25 -54 -53z"/>
<path d="M1940 5730 c0 -5 5 -10 10 -10 6 0 10 5 10 10 0 6 -4 10 -10 10 -5 0
-10 -4 -10 -10z"/>
<path d="M1930 5699 c0 -5 5 -7 10 -4 6 3 10 8 10 11 0 2 -4 4 -10 4 -5 0 -10
-5 -10 -11z"/>
<path d="M2730 5616 c0 -8 4 -17 9 -20 5 -4 7 3 4 14 -6 23 -13 26 -13 6z"/>
<path d="M2752 5545 c0 -16 2 -22 5 -12 2 9 2 23 0 30 -3 6 -5 -1 -5 -18z"/>
<path d="M1798 5333 c6 -2 12 -14 12 -26 0 -18 2 -19 10 -7 10 16 -5 41 -24
39 -7 0 -6 -2 2 -6z"/>
<path d="M2248 4945 c-36 -19 -69 -39 -72 -44 -5 -7 105 -97 137 -112 4 -2 9
40 11 94 2 53 1 97 -3 97 -3 -1 -36 -16 -73 -35z"/>
<path d="M2068 4803 c-18 -54 -14 -68 9 -38 15 19 15 19 8 -10 -5 -23 -4 -27
5 -18 8 7 22 8 40 3 34 -10 63 5 40 20 -13 8 -12 10 5 11 14 0 16 2 5 6 -8 3
-29 21 -47 39 -18 19 -36 34 -41 34 -5 0 -16 -21 -24 -47z"/>
<path d="M2160 4707 c-14 -6 -27 -14 -30 -17 -3 -3 -21 -14 -41 -24 -20 -10
-42 -28 -48 -38 -12 -19 -10 -19 21 -13 34 8 147 53 161 65 12 11 -4 40 -22
39 -9 0 -27 -6 -41 -12z"/>
<path d="M1855 4386 c-19 -21 -65 -133 -65 -158 0 -63 57 -168 90 -168 59 0
104 59 80 105 -7 13 -29 31 -49 39 -21 8 -44 22 -52 32 -13 16 -12 17 7 12 35
-9 41 3 36 68 -4 63 -26 94 -47 70z"/>
<path d="M1680 4058 c0 -34 18 -58 44 -58 15 0 3 42 -19 67 l-24 28 -1 -37z
m40 -39 c0 -5 -7 -6 -15 -3 -8 4 -15 13 -15 21 0 13 3 13 15 3 8 -7 15 -16 15
-21z"/>
<path d="M8576 6558 c-29 -38 -24 -47 37 -72 35 -14 37 -14 28 2 -4 9 -11 34
-15 54 -9 51 -20 54 -50 16z"/>
<path d="M8666 6475 c-4 -10 2 -19 17 -24 31 -12 41 -2 21 20 -21 23 -30 24
-38 4z"/>
<path d="M6151 5876 c-18 -19 -30 -39 -27 -45 4 -6 36 -11 71 -11 111 0 147
31 83 70 -50 30 -88 26 -127 -14z"/>
<path d="M1962 1338 c6 -18 28 -21 28 -4 0 9 -7 16 -16 16 -9 0 -14 -5 -12
-12z"/>
<path d="M1824 1205 c-19 -14 -18 -14 4 -15 13 0 22 -6 22 -15 0 -8 5 -15 10
-15 14 0 12 16 -5 33 -8 8 -11 17 -8 21 12 12 -3 6 -23 -9z"/>
<path d="M1945 1200 c3 -5 15 -10 25 -10 10 0 22 5 25 10 4 6 -7 10 -25 10
-18 0 -29 -4 -25 -10z"/>
<path d="M1940 1126 c0 -2 9 -6 20 -9 11 -3 18 -1 14 4 -5 9 -34 13 -34 5z"/>
<path d="M1690 1090 c-24 -8 -23 -8 8 -9 20 -1 31 3 27 9 -3 6 -7 10 -8 9 -1
-1 -13 -5 -27 -9z"/>
<path d="M1752 1091 c-11 -7 -11 -9 2 -14 10 -4 16 -1 16 8 0 17 -1 17 -18 6z"/>
<path d="M1830 1082 c0 -4 9 -8 20 -9 11 -1 20 2 20 8 0 5 -9 9 -20 9 -11 0
-20 -4 -20 -8z"/>
<path d="M1975 1030 c-3 -5 -1 -10 4 -10 6 0 11 5 11 10 0 6 -2 10 -4 10 -3 0
-8 -4 -11 -10z"/>
<path d="M1790 1010 c0 -5 5 -10 11 -10 5 0 7 5 4 10 -3 6 -8 10 -11 10 -2 0
-4 -4 -4 -10z"/>
<path d="M1835 1000 c3 -5 8 -10 11 -10 2 0 4 5 4 10 0 6 -5 10 -11 10 -5 0
-7 -4 -4 -10z"/>
<path d="M2045 980 c-3 -5 -2 -10 4 -10 5 0 13 5 16 10 3 6 2 10 -4 10 -5 0
-13 -4 -16 -10z"/>
<path d="M1760 959 c0 -5 5 -7 10 -4 6 3 10 8 10 11 0 2 -4 4 -10 4 -5 0 -10
-5 -10 -11z"/>
<path d="M1802 962 c-9 -6 -2 -14 23 -28 19 -10 35 -21 35 -24 0 -3 20 -7 45
-8 27 -1 45 3 45 9 0 6 -7 9 -15 5 -8 -3 -28 0 -43 6 -15 6 -31 10 -35 9 -5
-1 -16 8 -25 19 -11 12 -22 17 -30 12z"/>
<path d="M1876 961 c-6 -9 35 -24 43 -15 6 5 -18 24 -31 24 -4 0 -9 -4 -12 -9z"/>
<path d="M1715 950 c3 -5 8 -10 11 -10 2 0 4 5 4 10 0 6 -5 10 -11 10 -5 0 -7
-4 -4 -10z"/>
<path d="M2050 930 c0 -5 4 -10 9 -10 6 0 13 5 16 10 3 6 -1 10 -9 10 -9 0
-16 -4 -16 -10z"/>
<path d="M1775 910 c-17 -7 -17 -9 -2 -9 9 -1 20 -1 24 -2 4 0 9 4 11 10 4 13
-5 13 -33 1z"/>
<path d="M1970 906 c0 -2 9 -6 20 -9 11 -3 18 -1 14 4 -5 9 -34 13 -34 5z"/>
<path d="M2270 895 c0 -9 9 -15 23 -15 14 0 24 6 24 15 0 9 -10 15 -24 15 -14
0 -23 -6 -23 -15z"/>
<path d="M2326 902 c-3 -6 -1 -14 5 -17 15 -10 25 3 12 16 -7 7 -13 7 -17 1z"/>
<path d="M1830 890 c0 -5 5 -10 10 -10 6 0 10 5 10 10 0 6 -4 10 -10 10 -5 0
-10 -4 -10 -10z"/>
<path d="M3808 893 c7 -3 16 -2 19 1 4 3 -2 6 -13 5 -11 0 -14 -3 -6 -6z"/>
<path d="M7710 1430 c0 -5 5 -10 10 -10 6 0 10 5 10 10 0 6 -4 10 -10 10 -5 0
-10 -4 -10 -10z"/>
<path d="M7740 1411 c0 -6 5 -13 10 -16 6 -3 10 1 10 9 0 9 -4 16 -10 16 -5 0
-10 -4 -10 -9z"/>
<path d="M7870 1271 c0 -5 14 -14 30 -20 33 -11 41 2 11 19 -24 12 -41 13 -41
1z"/>
<path d="M8020 1270 c0 -5 5 -10 11 -10 5 0 7 5 4 10 -3 6 -8 10 -11 10 -2 0
-4 -4 -4 -10z"/>
<path d="M8045 1235 c-5 -2 -23 -6 -38 -9 -17 -4 -25 -11 -21 -18 5 -7 0 -9
-14 -6 -12 4 -25 2 -28 -3 -3 -5 9 -9 25 -9 20 0 31 5 31 14 0 12 5 12 30 3
32 -12 59 1 46 22 -7 11 -13 12 -31 6z"/>
<path d="M8100 1210 c0 -5 5 -10 10 -10 6 0 10 5 10 10 0 6 -4 10 -10 10 -5 0
-10 -4 -10 -10z"/>
<path d="M8005 1150 c-4 -6 10 -10 35 -10 25 0 39 4 35 10 -3 6 -19 10 -35 10
-16 0 -32 -4 -35 -10z"/>
<path d="M7890 1129 c0 -5 5 -7 10 -4 6 3 10 8 10 11 0 2 -4 4 -10 4 -5 0 -10
-5 -10 -11z"/>
<path d="M7995 1119 c-4 -6 -4 -13 -1 -16 3 -4 6 -1 6 5 0 6 8 13 18 15 15 4
15 5 0 6 -9 0 -20 -4 -23 -10z"/>
<path d="M7802 1108 c3 -7 13 -15 22 -16 12 -3 17 1 14 10 -3 7 -13 15 -22 16
-12 3 -17 -1 -14 -10z"/>
<path d="M7728 1093 c7 -3 16 -2 19 1 4 3 -2 6 -13 5 -11 0 -14 -3 -6 -6z"/>
<path d="M7945 1081 c-3 -5 -13 -9 -23 -9 -26 2 -72 -11 -72 -21 0 -4 14 -8
30 -8 17 0 30 4 30 9 0 4 11 8 24 8 27 0 43 15 27 24 -5 4 -12 2 -16 -3z"/>
<path d="M7760 1060 c0 -5 7 -10 15 -10 8 0 15 5 15 10 0 6 -7 10 -15 10 -8 0
-15 -4 -15 -10z"/>
<path d="M7805 1060 c-3 -5 -1 -10 4 -10 6 0 11 5 11 10 0 6 -2 10 -4 10 -3 0
-8 -4 -11 -10z"/>
<path d="M7950 1040 c-13 -8 -12 -10 3 -10 9 0 17 5 17 10 0 12 -1 12 -20 0z"/>
<path d="M7750 1020 c0 -5 4 -10 9 -10 6 0 13 5 16 10 3 6 -1 10 -9 10 -9 0
-16 -4 -16 -10z"/>
<path d="M7610 1010 c8 -5 22 -10 30 -10 13 0 13 1 0 10 -8 5 -22 10 -30 10
-13 0 -13 -1 0 -10z"/>
<path d="M7904 1005 c10 -8 23 -12 28 -9 14 9 -2 24 -25 24 -21 -1 -21 -1 -3
-15z"/>
<path d="M7710 1000 c0 -5 5 -10 11 -10 5 0 7 5 4 10 -3 6 -8 10 -11 10 -2 0
-4 -4 -4 -10z"/>
<path d="M7785 970 c3 -5 8 -10 11 -10 2 0 4 5 4 10 0 6 -5 10 -11 10 -5 0 -7
-4 -4 -10z"/>
<path d="M7660 943 c8 -3 18 -11 22 -17 4 -6 10 -7 15 -3 9 10 -16 27 -37 26
-13 -1 -13 -1 0 -6z"/>
<path d="M7268 903 c6 -2 18 -2 25 0 6 3 1 5 -13 5 -14 0 -19 -2 -12 -5z"/>
<path d="M8010 900 c0 -5 5 -10 10 -10 6 0 10 5 10 10 0 6 -4 10 -10 10 -5 0
-10 -4 -10 -10z"/>
<path d="M6228 893 c6 -2 18 -2 25 0 6 3 1 5 -13 5 -14 0 -19 -2 -12 -5z"/>
<path d="M6650 890 c0 -5 5 -10 11 -10 5 0 7 5 4 10 -3 6 -8 10 -11 10 -2 0
-4 -4 -4 -10z"/>
<path d="M7036 892 c-3 -4 4 -9 15 -9 23 -2 25 3 4 10 -8 4 -16 3 -19 -1z"/>
<path d="M7175 890 c3 -5 12 -10 20 -10 8 0 17 5 20 10 4 6 -5 10 -20 10 -15
0 -24 -4 -20 -10z"/>
</g>
</svg>
