<svg width="273" height="314" viewBox="0 0 273 314" fill="none" xmlns="http://www.w3.org/2000/svg">
<g clip-path="url(#clip0_509_20)">
<path d="M133.24 4.2763e-05C132.67 0.0194428 132.014 0.228133 131.655 0.731763L50.9816 97.2588C49.6391 98.9394 49.5485 99.3145 51.3475 99.332L212.937 98.905C215.158 98.7236 215.168 98.8348 213.73 96.9537L134.459 0.426709C134.295 0.171499 133.811 -0.0139872 133.24 4.2763e-05ZM148.728 8.59794L221.474 97.0759C222.448 98.2576 222.686 98.3247 224.401 97.5029L262.756 79.9409C265.268 78.807 264.92 78.5748 263.244 77.4407L148.714 8.59068L148.728 8.59794ZM114.764 11.8296C114.73 11.7574 114.138 12.1996 112.813 13.1102L7.20268 82.6242L40.2527 97.6242C41.9768 98.1926 42.4919 98.2231 43.6063 96.8314L113.303 13.5974C114.286 12.4608 114.799 11.9013 114.767 11.8291L114.764 11.8296ZM148.18 47.0746C152.848 47.0748 156.586 48.6842 159.339 51.8919C162.091 55.0836 163.644 59.6437 164.034 65.5509C164.424 71.4422 163.436 76.0019 161.107 79.2099C158.778 82.4016 155.288 83.9661 150.619 83.9661C145.935 83.9661 142.212 82.4016 139.46 79.2099C136.708 76.0022 135.155 71.4423 134.765 65.5509C134.374 59.6438 135.362 55.0839 137.692 51.8919C140.021 48.6842 143.495 47.0748 148.18 47.0746ZM117.508 47.4405C121.764 47.4407 124.955 48.3718 127.02 50.2455C129.102 52.1193 129.846 54.7001 129.338 58.0506C129.044 59.988 128.276 61.7945 127.02 63.4777C125.767 65.1451 123.337 67.4355 119.703 70.2461L111.105 76.8927H126.715L125.74 83.6002H99.8858L100.922 76.8927L115.618 65.4287C116.937 64.3807 117.96 63.3802 118.667 62.3798C119.375 61.3794 119.784 60.2888 119.948 59.209C120.201 57.5416 119.883 56.2007 118.911 55.1845C117.954 54.1683 116.501 53.6602 114.643 53.66C113.213 53.6602 111.618 54.0165 109.825 54.6356C108.035 55.2392 106.092 56.1119 103.971 57.3186L105.13 49.5135C107.298 48.8308 109.402 48.3384 111.472 47.9892C113.544 47.624 115.571 47.4407 117.508 47.4405ZM148.607 53.3554C146.638 53.3554 145.303 54.2733 144.582 56.0993C143.86 57.9097 143.618 61.0436 143.912 65.4898C144.209 69.9838 144.839 73.0994 145.802 74.9414C146.765 76.7834 148.223 77.7464 150.192 77.7464C152.146 77.7464 153.497 76.7834 154.217 74.9414C154.937 73.0994 155.185 69.9838 154.888 65.4898C154.594 61.0436 153.958 57.9097 152.997 56.0993C152.051 54.2733 150.576 53.3554 148.607 53.3554ZM60.921 58.2945C61.7664 58.2945 62.3601 58.5062 62.6283 58.9653C63.1588 59.8786 62.4879 61.659 60.6771 64.3922C58.8606 67.1351 56.7744 69.4671 54.3964 71.3436C52.0121 73.2151 49.3747 74.6233 46.5303 75.5511C44.6855 76.1529 43.4126 76.3108 42.6889 75.9779C41.9585 75.6399 41.7902 74.796 42.201 73.5388C40.8268 74.9921 39.3914 76.2528 37.8715 77.2585C36.3518 78.264 34.8035 79.0449 33.1763 79.5756C30.7545 80.3655 29.2961 80.3079 28.9079 79.3922C28.5194 78.477 29.216 76.7213 30.92 74.1481C32.6116 71.5939 34.5033 69.4272 36.652 67.6845C38.7877 65.9459 41.1081 64.6979 43.5425 63.9039C45.1696 63.3731 46.305 63.2334 46.9572 63.538C47.6156 63.833 47.7686 64.5616 47.445 65.6721C48.9319 64.064 50.5035 62.7095 52.2013 61.5867C53.8925 60.4587 55.6612 59.5665 57.5062 58.9646C58.9285 58.5008 60.0757 58.2969 60.921 58.2945ZM223.671 59.7579C225.123 60.9726 226.464 62.2288 227.695 63.4165C228.936 64.6042 230.063 65.75 231.049 66.8923C233.215 69.4017 234.367 71.3529 234.464 72.7461C234.569 74.1487 233.625 74.8669 231.659 74.8802C230.522 74.8802 229.193 74.5489 227.695 73.9656C226.207 73.3824 223.843 72.1872 220.561 70.307L212.756 65.8555L220.744 75.0632L216.78 75.1237L203.609 59.8797L207.573 59.8192L220.927 67.4415C222.132 68.1208 223.167 68.6421 224.037 68.9658C224.907 69.2898 225.659 69.4579 226.293 69.4537C227.271 69.4537 227.734 69.0858 227.756 68.4172C227.787 67.7576 227.361 66.8907 226.415 65.7951C225.688 64.9525 224.716 63.9896 223.488 62.9901C222.269 61.9906 220.792 60.9569 219.098 59.8193L223.671 59.7579ZM55.491 63.8435C55.0385 63.8864 54.4274 63.9801 53.7225 64.2094C52.3005 64.6732 51.0409 65.3201 49.9419 66.0996C48.8303 66.8834 47.9269 67.7742 47.2589 68.7826C46.5847 69.8006 46.4381 70.4948 46.8321 70.7949C47.2259 71.095 48.1666 71.0107 49.576 70.5509C50.9854 70.0912 52.2387 69.4539 53.3566 68.6605C54.4619 67.8717 55.3655 66.9346 56.0396 65.9166C56.7076 64.9082 56.8538 64.2601 56.4665 63.9653C56.2664 63.8209 55.9433 63.8006 55.491 63.8435ZM42.259 68.4778C41.8966 68.5052 41.4266 68.5968 40.8565 68.7826C39.7162 69.1547 38.7156 69.7098 37.8077 70.368C36.8867 71.0305 36.1131 71.7761 35.5513 72.6243C34.9771 73.4915 34.8216 74.061 35.1245 74.3317C35.4336 74.593 36.1921 74.5171 37.3198 74.1483C38.4601 73.7764 39.4476 73.2862 40.3686 72.6238C41.2957 71.952 42.0504 71.1738 42.6246 70.3067C43.1865 69.4585 43.3607 68.9217 43.0516 68.6604C42.8974 68.5297 42.6212 68.4507 42.259 68.4778ZM268.359 84.0878C268.031 84.1113 267.513 84.3001 266.713 84.6365L227.322 102.624C225.923 103.259 226.011 104.115 226.529 105.186L272.323 221.346L269.03 86.0356C268.929 84.5559 268.907 84.0451 268.359 84.0843L268.359 84.0878ZM4.20898 87.6854L0.00158691 219.335L38.7836 105.425C39.3565 103.743 39.343 103.658 38.1738 103.108L4.20976 87.6813L4.20898 87.6854ZM215.069 104.759L49.819 105.186C47.4574 105.151 47.5552 105.153 48.7215 107.077L132.626 248.607C134.043 250.766 133.892 250.698 135.37 248.486L215.982 106.716C216.688 105.589 217.193 104.802 215.068 104.764L215.069 104.759ZM221.655 108.479C221.502 108.544 221.336 109.117 220.862 110.003L139.701 252.813C138.815 254.321 138.605 254.861 140.738 254.521L269.588 236.777C271.631 236.31 271.569 235.58 270.868 233.545L222.248 110.065C221.927 108.882 221.791 108.416 221.639 108.48L221.655 108.479ZM43.4746 109.821C43.3166 109.934 43.1745 110.536 42.8648 111.406L1.70477 232.566C1.0039 235.14 0.924643 236.107 3.53407 236.591L126.644 254.396C128.972 254.745 128.674 253.573 128.107 252.444L44.3175 111.104C43.7901 110.036 43.6211 109.71 43.4638 109.824L43.4746 109.821ZM267.505 111.406L267.749 116.467L263.602 119.15L264.578 137.504L268.724 133.418L269.029 138.419L264.822 142.443L260.37 145.309L259.151 121.955L257.199 123.175L257.26 124.638C256.346 124.511 255.457 124.568 254.577 124.759C253.689 124.969 252.853 125.325 252.016 125.857C250.772 126.647 249.834 127.571 249.211 128.662C248.579 129.757 248.292 130.943 248.357 132.198C248.423 133.492 248.799 134.229 249.516 134.455C250.225 134.698 251.24 134.435 252.564 133.601L254.455 132.381L254.699 137.138L252.747 138.357C251.569 139.106 250.673 139.981 250.125 140.918C249.578 141.868 249.333 142.909 249.394 144.089C249.45 145.18 249.778 145.861 250.369 146.101C250.961 146.341 251.784 146.142 252.808 145.492C253.564 145.011 254.306 144.358 255.065 143.601C255.823 142.844 256.583 141.985 257.321 140.979L257.565 146.345C256.659 147.34 255.782 148.186 254.882 148.967C253.982 149.749 253.077 150.422 252.199 150.98C249.833 152.482 248.066 153.039 246.833 152.565C245.592 152.109 244.885 150.671 244.759 148.236C244.674 146.574 244.863 145.023 245.369 143.601C245.876 142.192 246.672 140.888 247.747 139.76C246.495 140.045 245.518 139.795 244.821 138.967C244.116 138.157 243.759 136.833 243.662 134.943C243.517 132.127 244.063 129.548 245.369 127.198C246.676 124.862 248.695 122.845 251.345 121.162C252.28 120.568 253.195 120.056 254.15 119.698C254.345 119.622 254.562 119.581 254.76 119.515L254.82 119.454L267.503 111.405L267.505 111.406ZM7.68459 121.284C8.30629 121.243 8.95809 121.446 9.69679 121.894C11.3252 122.88 12.5165 124.73 13.2334 127.443C13.2785 127.615 13.3151 127.815 13.3544 127.992L13.5982 124.76L22.379 130.065L22.0131 134.516L19.1473 132.809L17.8666 148.785L20.8546 149.395L20.5497 153.724L17.5007 153.175L14.4518 151.285L16.0984 130.919L13.5982 129.456C13.9731 131.791 14.0956 134.482 13.8421 137.565C13.5053 141.663 12.697 144.518 11.4641 146.224C10.2247 147.938 8.70932 148.241 6.89072 147.139C6.31457 146.79 5.77272 146.364 5.24452 145.858C4.71625 145.352 4.16153 144.767 3.65903 144.09L4.02501 139.517C4.51548 140.337 5.0375 141.012 5.4884 141.529C5.93829 142.058 6.38232 142.478 6.8299 142.749C7.79227 143.332 8.58331 143.243 9.20801 142.505C9.83169 141.778 10.2278 140.386 10.4886 138.358C10.0745 138.677 9.66061 138.841 9.20801 138.846C8.75424 138.866 8.25378 138.727 7.74451 138.419C6.46311 137.643 5.53991 136.292 4.87871 134.334C4.21151 132.372 3.94919 130.151 4.14691 127.748C4.36532 125.09 4.96571 123.212 5.97621 122.138C6.48109 121.607 7.06171 121.327 7.68361 121.285L7.68459 121.284ZM8.59903 125.736C8.37176 125.786 8.15897 125.948 7.98946 126.223C7.64393 126.781 7.43797 127.761 7.3187 129.211C7.19959 130.662 7.21539 131.855 7.4397 132.748C7.65937 133.648 8.0885 134.293 8.6593 134.638C9.22427 134.981 9.65516 134.832 10.0007 134.272C10.3397 133.722 10.5522 132.735 10.6714 131.285C10.7905 129.834 10.769 128.648 10.5504 127.748C10.3242 126.855 9.95695 126.261 9.39186 125.919C9.10642 125.745 8.82663 125.685 8.59903 125.736ZM105.431 134.76H114.09V141.224H129.883V149.09L115.614 170.31H105.431V147.87H100.37V141.223H105.431L105.431 134.76ZM135.432 134.76H160.25V141.102H152.201V164.091L160.494 162.383V168.603L152.201 170.311H143.481V141.103H135.432V134.76ZM114.09 147.87V162.809L124.151 147.87H114.09ZM52.808 174.761L58.5399 182.566L55.8569 184.335C56.2708 184.428 56.654 184.499 57.0764 184.639C60.4438 185.775 63.542 188.287 66.345 192.079C69.4344 196.259 70.6804 200.208 70.0645 204.031C69.4264 207.846 66.9491 211.163 62.6863 213.97C58.3173 216.847 53.9205 217.806 49.4543 216.775C44.9655 215.737 41.0141 212.846 37.5633 208.177C36.4698 206.698 35.4772 205.244 34.6364 203.726C33.7954 202.208 33.0719 200.644 32.4412 199.03L37.3194 195.799C37.7966 197.513 38.3827 199.063 39.0267 200.433C39.6586 201.811 40.3725 203.065 41.2219 204.214C43.048 206.684 45.0448 208.215 47.1977 208.848C49.3387 209.488 51.5764 209.226 53.9661 207.994C52.6869 207.427 51.5304 206.658 50.4295 205.738C49.3168 204.826 48.2858 203.691 47.3198 202.384C44.8884 199.095 43.687 195.925 43.783 192.872C43.8686 189.805 45.1841 187.424 47.7465 185.737C48.4551 185.271 49.1991 184.919 49.9416 184.64L45.9782 179.274L52.808 174.761ZM208.418 186.042L215.064 191.164L225.674 216.043L220.369 223.909L201.222 209.274L198.6 213.177L192.929 208.848L195.612 204.884L190.063 200.677L194.637 193.969L200.125 198.238L208.418 186.042ZM57.378 192.201C56.345 192.269 55.2454 192.717 54.0852 193.481C52.5384 194.5 51.6892 195.597 51.4633 196.835C51.2147 198.066 51.5999 199.456 52.6828 200.921C53.7551 202.372 54.9596 203.201 56.2804 203.421C57.5787 203.634 59.002 203.22 60.5488 202.201C62.0958 201.183 62.9834 200.079 63.2318 198.847C63.458 197.61 63.0835 196.213 62.0123 194.762C60.9293 193.297 59.713 192.475 58.4147 192.262C58.0843 192.207 57.7224 192.177 57.378 192.201ZM211.038 194.823L205.794 202.567L218.477 212.323L211.038 194.823ZM11.458 243.666L132.258 312.205C133.822 313.153 134.188 312.808 133.965 311.168L131.404 263.118C131.335 261.568 131.124 260.936 129.514 260.679L11.4641 243.666L11.458 243.666ZM261.218 243.787L138.588 260.739C136.97 260.977 137.262 261.772 137.247 262.934L139.869 311.838C140.003 313.322 139.96 313.854 141.759 312.936L261.218 243.787ZM184.447 264.885L193.411 274.824L200.423 270.678L202.374 272.873L183.959 283.788L180.972 285.557L162.557 296.472L160.605 294.337L167.618 290.191L160.483 282.386L153.898 287.203L151.947 285.069L158.532 280.313L166.032 275.861L175.057 285.801L179.021 283.422L182.008 281.654L185.972 279.276L178.899 271.471L172.252 276.288L170.362 274.154L176.947 269.337L184.447 264.885ZM103.835 266.349C106.208 266.456 108.35 267.276 110.36 268.787C112.591 270.465 113.536 272.275 113.165 274.276C112.794 276.276 111.138 278.276 108.226 280.251C106.493 281.426 104.704 282.229 102.921 282.751L104.994 284.337L100.298 287.508L96.1519 284.398L97.6763 283.361C95.0793 283.191 92.7336 282.341 90.603 280.739C89.8007 280.136 89.0729 279.549 88.4687 278.91C87.8567 278.276 87.3356 277.596 86.8833 276.898L90.2372 274.641C90.5923 275.406 90.9928 276.05 91.4567 276.654C91.9286 277.252 92.4765 277.829 93.103 278.3C94.4172 279.288 95.8693 279.794 97.3714 279.824C98.8815 279.849 100.416 279.356 102.067 278.422C101.143 278.306 100.296 278.118 99.5056 277.812C98.7151 277.507 97.9981 277.11 97.3106 276.593C95.5606 275.277 94.69 273.803 94.6885 272.263C94.7076 270.724 95.6078 269.374 97.3714 268.178C99.321 266.855 101.47 266.248 103.835 266.349ZM104.872 270.007C103.948 270.076 102.996 270.452 101.945 271.166C100.885 271.885 100.26 272.584 100.116 273.239C99.9789 273.889 100.319 274.488 101.091 275.068C101.863 275.649 102.675 275.925 103.591 275.861C104.515 275.791 105.519 275.36 106.579 274.641C107.631 273.928 108.203 273.284 108.347 272.629C108.492 271.974 108.205 271.319 107.433 270.739C106.661 270.159 105.795 269.938 104.872 270.007Z" fill="#8AB8BD"/>
</g>
<defs>
<clipPath id="clip0_509_20">
<rect width="272.33" height="313.39" fill="white"/>
</clipPath>
</defs>
</svg>
